<svg id="svg" version="1.1" xmlns="http://www.w3.org/2000/svg" xmlns:xlink="http://www.w3.org/1999/xlink" width="400" height="492.3076923076923" viewBox="0, 0, 400,492.3076923076923"><g id="svgg"><path id="path0" d="M22.070 22.126 L 21.200 23.052 21.200 246.056 L 21.200 469.061 22.126 469.930 L 23.052 470.800 115.456 470.800 L 207.861 470.800 208.726 469.879 L 209.591 468.958 209.695 367.779 L 209.800 266.600 210.747 263.801 C 212.070 259.890,214.022 257.991,218.008 256.739 L 221.000 255.800 261.400 255.800 C 309.114 255.800,308.131 255.695,311.142 261.140 C 313.305 265.051,313.190 259.101,313.195 367.846 L 313.200 468.692 314.029 469.746 L 314.858 470.800 345.959 470.800 L 377.061 470.800 377.930 469.874 L 378.800 468.948 378.800 245.944 L 378.800 22.939 377.874 22.070 L 376.948 21.200 199.944 21.200 L 22.939 21.200 22.070 22.126 M135.078 87.273 C 140.021 88.802,142.151 90.984,143.386 95.784 C 144.327 99.439,144.309 177.288,143.366 180.942 C 142.192 185.494,140.232 187.736,136.228 189.106 C 133.640 189.992,54.363 190.426,50.400 189.576 C 45.422 188.509,42.999 186.466,41.510 182.082 L 40.600 179.400 40.486 139.600 C 40.384 103.821,40.440 99.497,41.033 96.800 C 42.463 90.300,44.669 88.301,52.037 86.827 C 55.531 86.128,132.718 86.543,135.078 87.273 M242.995 87.351 C 252.075 90.093,252.000 89.669,252.000 138.400 C 252.000 187.377,252.078 186.951,242.616 189.386 C 239.026 190.310,160.974 190.310,157.384 189.386 C 147.922 186.951,148.000 187.377,148.000 138.400 C 148.000 88.568,147.841 89.341,158.600 87.050 C 163.240 86.062,239.628 86.335,242.995 87.351 M350.931 87.462 C 355.816 88.979,357.841 91.365,358.986 96.958 C 359.584 99.876,359.638 104.157,359.525 139.800 L 359.400 179.400 358.490 182.082 C 357.001 186.466,354.578 188.509,349.600 189.576 C 345.637 190.426,266.360 189.992,263.772 189.106 C 259.768 187.736,257.808 185.494,256.634 180.942 C 255.691 177.288,255.673 99.439,256.614 95.784 C 258.057 90.176,260.723 87.995,267.600 86.796 C 272.365 85.966,348.060 86.571,350.931 87.462 " stroke="none" fill="#949494" fill-rule="evenodd"></path><path id="path1" d="M0.000 246.000 L 0.000 492.000 200.000 492.000 L 400.000 492.000 400.000 246.000 L 400.000 0.000 200.000 0.000 L 0.000 0.000 0.000 246.000 M380.303 13.615 C 383.133 15.029,385.288 17.251,386.635 20.144 L 387.592 22.200 387.592 246.000 L 387.592 469.800 386.635 471.856 C 385.288 474.749,383.133 476.971,380.303 478.385 L 377.872 479.600 346.147 479.600 L 314.422 479.600 312.206 478.551 C 309.352 477.200,306.326 473.918,305.228 470.984 L 304.400 468.770 304.400 368.724 L 304.400 268.678 302.261 266.539 L 300.122 264.400 261.539 264.400 L 222.957 264.400 220.678 266.678 L 218.400 268.957 218.400 369.414 L 218.400 469.872 217.185 472.303 C 215.771 475.133,213.549 477.288,210.656 478.635 L 208.600 479.592 115.400 479.592 L 22.200 479.592 20.144 478.635 C 17.251 477.288,15.029 475.133,13.615 472.303 L 12.400 469.872 12.400 246.000 L 12.400 22.128 13.615 19.697 C 15.029 16.867,17.251 14.712,20.144 13.365 L 22.200 12.408 200.036 12.404 L 377.872 12.400 380.303 13.615 M51.286 97.713 L 49.200 99.825 49.200 138.337 L 49.200 176.848 51.258 179.024 L 53.316 181.200 92.277 181.200 L 131.238 181.200 133.219 179.219 L 135.200 177.238 135.200 138.418 L 135.200 99.597 133.274 97.599 L 131.347 95.600 92.360 95.600 L 53.373 95.600 51.286 97.713 M159.143 97.543 L 157.200 99.486 157.200 138.400 L 157.200 177.314 159.143 179.257 L 161.086 181.200 200.000 181.200 L 238.914 181.200 240.857 179.257 L 242.800 177.314 242.800 138.400 L 242.800 99.486 240.857 97.543 L 238.914 95.600 200.000 95.600 L 161.086 95.600 159.143 97.543 M266.726 97.599 L 264.800 99.597 264.800 138.418 L 264.800 177.238 266.781 179.219 L 268.762 181.200 307.723 181.200 L 346.684 181.200 348.742 179.024 L 350.800 176.848 350.800 138.310 L 350.800 99.773 348.687 97.686 L 346.575 95.600 307.614 95.600 L 268.653 95.600 266.726 97.599 M115.600 138.400 L 115.600 161.600 92.400 161.600 L 69.200 161.600 69.200 138.400 L 69.200 115.200 92.400 115.200 L 115.600 115.200 115.600 138.400 M223.200 138.400 L 223.200 161.600 200.000 161.600 L 176.800 161.600 176.800 138.400 L 176.800 115.200 200.000 115.200 L 223.200 115.200 223.200 138.400 M330.800 138.400 L 330.800 161.600 307.600 161.600 L 284.400 161.600 284.400 138.400 L 284.400 115.200 307.600 115.200 L 330.800 115.200 330.800 138.400 M286.812 278.454 C 288.553 279.716,290.006 281.241,291.297 283.162 C 292.165 284.454,292.411 468.060,291.547 469.726 C 290.615 471.525,288.199 474.145,286.451 475.254 L 284.643 476.400 261.494 476.400 L 238.344 476.400 236.672 475.238 C 234.907 474.012,232.962 472.060,231.860 470.411 C 231.251 469.499,231.200 462.231,231.200 376.780 L 231.200 284.137 232.452 282.247 C 233.140 281.208,234.625 279.650,235.752 278.785 L 237.800 277.213 261.440 277.207 L 285.080 277.200 286.812 278.454 M266.311 355.189 C 263.071 357.509,260.970 360.796,261.756 362.316 C 262.751 364.239,265.861 367.415,267.710 368.396 L 269.469 369.329 271.257 368.098 C 277.694 363.669,278.217 359.861,272.954 355.734 C 269.633 353.130,269.232 353.097,266.311 355.189 " stroke="none" fill="#040404" fill-rule="evenodd"></path><path id="path2" d="M20.144 13.365 C 17.251 14.712,15.029 16.867,13.615 19.697 L 12.400 22.128 12.400 246.000 L 12.400 469.872 13.615 472.303 C 15.029 475.133,17.251 477.288,20.144 478.635 L 22.200 479.592 115.400 479.592 L 208.600 479.592 210.656 478.635 C 213.549 477.288,215.771 475.133,217.185 472.303 L 218.400 469.872 218.400 369.414 L 218.400 268.957 220.678 266.678 L 222.957 264.400 261.539 264.400 L 300.122 264.400 302.261 266.539 L 304.400 268.678 304.400 368.724 L 304.400 468.770 305.228 470.984 C 306.326 473.918,309.352 477.200,312.206 478.551 L 314.422 479.600 346.147 479.600 L 377.872 479.600 380.303 478.385 C 383.133 476.971,385.288 474.749,386.635 471.856 L 387.592 469.800 387.592 246.000 L 387.592 22.200 386.635 20.144 C 385.288 17.251,383.133 15.029,380.303 13.615 L 377.872 12.400 200.036 12.404 L 22.200 12.408 20.144 13.365 M379.087 20.886 L 381.200 22.973 381.200 245.974 L 381.200 468.975 379.114 471.087 L 377.027 473.200 346.133 473.200 L 315.238 473.200 313.219 471.181 L 311.200 469.162 311.191 368.881 L 311.181 268.600 310.247 266.329 C 308.816 262.851,307.153 261.032,303.927 259.418 L 301.093 258.000 261.782 258.000 L 222.471 258.000 220.136 258.887 C 216.996 260.078,214.078 262.996,212.887 266.136 L 212.000 268.471 212.000 368.723 L 212.000 468.975 209.914 471.087 L 207.827 473.200 115.426 473.200 L 23.025 473.200 20.913 471.114 L 18.800 469.027 18.800 246.026 L 18.800 23.025 20.886 20.913 L 22.973 18.800 199.974 18.800 L 376.975 18.800 379.087 20.886 M50.064 90.222 C 47.048 91.732,45.533 93.244,43.964 96.313 L 43.000 98.200 43.000 138.400 L 43.000 178.600 43.964 180.487 C 45.519 183.529,47.054 185.078,49.906 186.482 L 52.583 187.800 91.791 187.908 L 131.000 188.017 133.319 187.153 C 136.322 186.033,139.191 183.433,140.649 180.509 L 141.800 178.200 141.800 138.400 L 141.800 98.600 140.680 96.319 C 139.277 93.463,136.268 90.707,133.366 89.622 C 131.206 88.813,130.532 88.800,92.039 88.800 L 52.907 88.800 50.064 90.222 M160.000 89.170 C 156.476 90.260,153.455 92.805,151.659 96.200 L 150.600 98.200 150.600 138.400 L 150.600 178.600 151.760 180.693 C 153.302 183.476,155.266 185.377,157.973 186.706 L 160.200 187.800 200.000 187.800 L 239.800 187.800 242.027 186.706 C 244.734 185.377,246.698 183.476,248.240 180.693 L 249.400 178.600 249.400 138.400 L 249.400 98.200 248.341 96.200 C 246.951 93.574,244.835 91.444,242.275 90.094 L 240.200 89.000 200.600 88.931 C 178.820 88.892,160.550 89.000,160.000 89.170 M266.521 89.641 C 263.709 90.722,260.697 93.516,259.320 96.319 L 258.200 98.600 258.200 138.400 L 258.200 178.200 259.351 180.509 C 260.809 183.433,263.678 186.033,266.681 187.153 L 269.000 188.017 308.209 187.908 L 347.417 187.800 350.094 186.482 C 352.946 185.078,354.481 183.529,356.036 180.487 L 357.000 178.600 357.000 138.400 L 357.000 98.200 356.036 96.313 C 354.467 93.244,352.952 91.732,349.936 90.222 L 347.093 88.800 307.846 88.821 C 269.597 88.841,268.547 88.862,266.521 89.641 M133.274 97.599 L 135.200 99.597 135.200 138.418 L 135.200 177.238 133.219 179.219 L 131.238 181.200 92.277 181.200 L 53.316 181.200 51.258 179.024 L 49.200 176.848 49.200 138.337 L 49.200 99.825 51.286 97.713 L 53.373 95.600 92.360 95.600 L 131.347 95.600 133.274 97.599 M240.857 97.543 L 242.800 99.486 242.800 138.400 L 242.800 177.314 240.857 179.257 L 238.914 181.200 200.000 181.200 L 161.086 181.200 159.143 179.257 L 157.200 177.314 157.200 138.400 L 157.200 99.486 159.143 97.543 L 161.086 95.600 200.000 95.600 L 238.914 95.600 240.857 97.543 M348.687 97.686 L 350.800 99.773 350.800 138.310 L 350.800 176.848 348.742 179.024 L 346.684 181.200 307.723 181.200 L 268.762 181.200 266.781 179.219 L 264.800 177.238 264.800 138.418 L 264.800 99.597 266.726 97.599 L 268.653 95.600 307.614 95.600 L 346.575 95.600 348.687 97.686 M235.752 278.785 C 234.625 279.650,233.140 281.208,232.452 282.247 L 231.200 284.137 231.200 376.780 C 231.200 462.231,231.251 469.499,231.860 470.411 C 232.962 472.060,234.907 474.012,236.672 475.238 L 238.344 476.400 261.494 476.400 L 284.643 476.400 286.451 475.254 C 288.199 474.145,290.615 471.525,291.547 469.726 C 292.411 468.060,292.165 284.454,291.297 283.162 C 290.006 281.241,288.553 279.716,286.812 278.454 L 285.080 277.200 261.440 277.207 L 237.800 277.213 235.752 278.785 M270.526 354.058 C 274.402 356.089,277.589 360.487,276.589 362.422 C 275.685 364.169,273.341 366.664,271.257 368.098 L 269.469 369.329 267.710 368.396 C 265.861 367.415,262.751 364.239,261.756 362.316 C 260.308 359.514,267.684 352.568,270.526 354.058 " stroke="none" fill="#545454" fill-rule="evenodd"></path><path id="path3" d="M20.886 20.913 L 18.800 23.025 18.800 246.026 L 18.800 469.027 20.913 471.114 L 23.025 473.200 115.426 473.200 L 207.827 473.200 209.914 471.087 L 212.000 468.975 212.000 368.723 L 212.000 268.471 212.887 266.136 C 214.078 262.996,216.996 260.078,220.136 258.887 L 222.471 258.000 261.782 258.000 L 301.093 258.000 303.927 259.418 C 307.153 261.032,308.816 262.851,310.247 266.329 L 311.181 268.600 311.191 368.881 L 311.200 469.162 313.219 471.181 L 315.238 473.200 346.133 473.200 L 377.027 473.200 379.114 471.087 L 381.200 468.975 381.200 245.974 L 381.200 22.973 379.087 20.886 L 376.975 18.800 199.974 18.800 L 22.973 18.800 20.886 20.913 M377.874 22.070 L 378.800 22.939 378.800 245.944 L 378.800 468.948 377.930 469.874 L 377.061 470.800 345.959 470.800 L 314.858 470.800 314.029 469.746 L 313.200 468.692 313.195 367.846 C 313.190 259.101,313.305 265.051,311.142 261.140 C 308.131 255.695,309.114 255.800,261.400 255.800 L 221.000 255.800 218.008 256.739 C 214.022 257.991,212.070 259.890,210.747 263.801 L 209.800 266.600 209.695 367.779 L 209.591 468.958 208.726 469.879 L 207.861 470.800 115.456 470.800 L 23.052 470.800 22.126 469.930 L 21.200 469.061 21.200 246.056 L 21.200 23.052 22.070 22.126 L 22.939 21.200 199.944 21.200 L 376.948 21.200 377.874 22.070 M52.037 86.827 C 44.669 88.301,42.463 90.300,41.033 96.800 C 40.440 99.497,40.384 103.821,40.486 139.600 L 40.600 179.400 41.510 182.082 C 42.999 186.466,45.422 188.509,50.400 189.576 C 54.363 190.426,133.640 189.992,136.228 189.106 C 140.232 187.736,142.192 185.494,143.366 180.942 C 144.309 177.288,144.327 99.439,143.386 95.784 C 142.151 90.984,140.021 88.802,135.078 87.273 C 132.718 86.543,55.531 86.128,52.037 86.827 M158.600 87.050 C 147.841 89.341,148.000 88.568,148.000 138.400 C 148.000 187.377,147.922 186.951,157.384 189.386 C 160.974 190.310,239.026 190.310,242.616 189.386 C 252.078 186.951,252.000 187.377,252.000 138.400 C 252.000 89.669,252.075 90.093,242.995 87.351 C 239.628 86.335,163.240 86.062,158.600 87.050 M267.600 86.796 C 260.723 87.995,258.057 90.176,256.614 95.784 C 255.673 99.439,255.691 177.288,256.634 180.942 C 257.808 185.494,259.768 187.736,263.772 189.106 C 266.360 189.992,345.637 190.426,349.600 189.576 C 354.578 188.509,357.001 186.466,358.490 182.082 L 359.400 179.400 359.525 139.800 C 359.674 92.777,359.709 93.179,355.131 89.493 C 351.456 86.534,352.842 86.622,308.800 86.548 C 287.130 86.512,268.590 86.624,267.600 86.796 M133.366 89.622 C 136.268 90.707,139.277 93.463,140.680 96.319 L 141.800 98.600 141.800 138.400 L 141.800 178.200 140.649 180.509 C 139.191 183.433,136.322 186.033,133.319 187.153 L 131.000 188.017 91.791 187.908 L 52.583 187.800 49.906 186.482 C 47.054 185.078,45.519 183.529,43.964 180.487 L 43.000 178.600 43.000 138.400 L 43.000 98.200 43.964 96.313 C 45.533 93.244,47.048 91.732,50.064 90.222 L 52.907 88.800 92.039 88.800 C 130.532 88.800,131.206 88.813,133.366 89.622 M242.275 90.094 C 244.835 91.444,246.951 93.574,248.341 96.200 L 249.400 98.200 249.400 138.400 L 249.400 178.600 248.240 180.693 C 246.698 183.476,244.734 185.377,242.027 186.706 L 239.800 187.800 200.000 187.800 L 160.200 187.800 157.973 186.706 C 155.266 185.377,153.302 183.476,151.760 180.693 L 150.600 178.600 150.600 138.400 L 150.600 98.200 151.659 96.200 C 153.455 92.805,156.476 90.260,160.000 89.170 C 160.550 89.000,178.820 88.892,200.600 88.931 L 240.200 89.000 242.275 90.094 M349.936 90.222 C 352.952 91.732,354.467 93.244,356.036 96.313 L 357.000 98.200 357.000 138.400 L 357.000 178.600 356.036 180.487 C 354.481 183.529,352.946 185.078,350.094 186.482 L 347.417 187.800 308.209 187.908 L 269.000 188.017 266.681 187.153 C 263.678 186.033,260.809 183.433,259.351 180.509 L 258.200 178.200 258.200 138.400 L 258.200 98.600 259.320 96.319 C 260.697 93.516,263.709 90.722,266.521 89.641 C 268.547 88.862,269.597 88.841,307.846 88.821 L 347.093 88.800 349.936 90.222 " stroke="none" fill="#707898" fill-rule="evenodd"></path><path id="path4" d="M20.886 20.913 L 18.800 23.025 18.800 246.026 L 18.800 469.027 20.913 471.114 L 23.025 473.200 115.426 473.200 L 207.827 473.200 209.914 471.087 L 212.000 468.975 212.000 368.723 L 212.000 268.471 212.887 266.136 C 214.078 262.996,216.996 260.078,220.136 258.887 L 222.471 258.000 261.782 258.000 L 301.093 258.000 303.927 259.418 C 307.153 261.032,308.816 262.851,310.247 266.329 L 311.181 268.600 311.191 368.881 L 311.200 469.162 313.219 471.181 L 315.238 473.200 346.133 473.200 L 377.027 473.200 379.114 471.087 L 381.200 468.975 381.200 245.974 L 381.200 22.973 379.087 20.886 L 376.975 18.800 199.974 18.800 L 22.973 18.800 20.886 20.913 M377.874 22.070 L 378.800 22.939 378.800 245.944 L 378.800 468.948 377.930 469.874 L 377.061 470.800 345.959 470.800 L 314.858 470.800 314.029 469.746 L 313.200 468.692 313.195 367.846 C 313.190 259.101,313.305 265.051,311.142 261.140 C 308.131 255.695,309.114 255.800,261.400 255.800 L 221.000 255.800 218.008 256.739 C 214.022 257.991,212.070 259.890,210.747 263.801 L 209.800 266.600 209.695 367.779 L 209.591 468.958 208.726 469.879 L 207.861 470.800 115.456 470.800 L 23.052 470.800 22.126 469.930 L 21.200 469.061 21.200 246.056 L 21.200 23.052 22.070 22.126 L 22.939 21.200 199.944 21.200 L 376.948 21.200 377.874 22.070 M52.037 86.827 C 44.669 88.301,42.463 90.300,41.033 96.800 C 40.440 99.497,40.384 103.821,40.486 139.600 L 40.600 179.400 41.510 182.082 C 42.999 186.466,45.422 188.509,50.400 189.576 C 54.363 190.426,133.640 189.992,136.228 189.106 C 140.232 187.736,142.192 185.494,143.366 180.942 C 144.309 177.288,144.327 99.439,143.386 95.784 C 142.151 90.984,140.021 88.802,135.078 87.273 C 132.718 86.543,55.531 86.128,52.037 86.827 M158.600 87.050 C 147.841 89.341,148.000 88.568,148.000 138.400 C 148.000 187.377,147.922 186.951,157.384 189.386 C 160.974 190.310,239.026 190.310,242.616 189.386 C 252.078 186.951,252.000 187.377,252.000 138.400 C 252.000 89.669,252.075 90.093,242.995 87.351 C 239.628 86.335,163.240 86.062,158.600 87.050 M267.600 86.796 C 260.723 87.995,258.057 90.176,256.614 95.784 C 255.673 99.439,255.691 177.288,256.634 180.942 C 257.808 185.494,259.768 187.736,263.772 189.106 C 266.360 189.992,345.637 190.426,349.600 189.576 C 354.578 188.509,357.001 186.466,358.490 182.082 L 359.400 179.400 359.525 139.800 C 359.674 92.777,359.709 93.179,355.131 89.493 C 351.456 86.534,352.842 86.622,308.800 86.548 C 287.130 86.512,268.590 86.624,267.600 86.796 M133.366 89.622 C 136.268 90.707,139.277 93.463,140.680 96.319 L 141.800 98.600 141.800 138.400 L 141.800 178.200 140.649 180.509 C 139.191 183.433,136.322 186.033,133.319 187.153 L 131.000 188.017 91.791 187.908 L 52.583 187.800 49.906 186.482 C 47.054 185.078,45.519 183.529,43.964 180.487 L 43.000 178.600 43.000 138.400 L 43.000 98.200 43.964 96.313 C 45.533 93.244,47.048 91.732,50.064 90.222 L 52.907 88.800 92.039 88.800 C 130.532 88.800,131.206 88.813,133.366 89.622 M242.275 90.094 C 244.835 91.444,246.951 93.574,248.341 96.200 L 249.400 98.200 249.400 138.400 L 249.400 178.600 248.240 180.693 C 246.698 183.476,244.734 185.377,242.027 186.706 L 239.800 187.800 200.000 187.800 L 160.200 187.800 157.973 186.706 C 155.266 185.377,153.302 183.476,151.760 180.693 L 150.600 178.600 150.600 138.400 L 150.600 98.200 151.659 96.200 C 153.455 92.805,156.476 90.260,160.000 89.170 C 160.550 89.000,178.820 88.892,200.600 88.931 L 240.200 89.000 242.275 90.094 M349.936 90.222 C 352.952 91.732,354.467 93.244,356.036 96.313 L 357.000 98.200 357.000 138.400 L 357.000 178.600 356.036 180.487 C 354.481 183.529,352.946 185.078,350.094 186.482 L 347.417 187.800 308.209 187.908 L 269.000 188.017 266.681 187.153 C 263.678 186.033,260.809 183.433,259.351 180.509 L 258.200 178.200 258.200 138.400 L 258.200 98.600 259.320 96.319 C 260.697 93.516,263.709 90.722,266.521 89.641 C 268.547 88.862,269.597 88.841,307.846 88.821 L 347.093 88.800 349.936 90.222 " stroke="none" fill="#707898" fill-rule="evenodd"></path></g></svg>