<svg id="svg" version="1.1" xmlns="http://www.w3.org/2000/svg" xmlns:xlink="http://www.w3.org/1999/xlink" width="400" height="426.6666666666667" viewBox="0, 0, 400,426.6666666666667"><g id="svgg"><path id="path0" d="M192.078 32.119 C 191.375 32.845,190.800 33.712,190.800 34.048 C 190.800 38.254,187.027 42.536,182.224 43.780 C 179.398 44.512,177.779 45.910,177.406 47.939 C 176.470 53.022,173.623 55.980,168.508 57.184 C 166.254 57.714,164.000 59.721,164.000 61.199 C 164.000 65.441,158.453 70.800,154.063 70.800 C 152.745 70.800,150.965 73.245,150.226 76.071 C 149.104 80.357,146.185 83.032,141.771 83.816 C 139.756 84.174,137.756 86.044,137.409 87.895 C 136.520 92.634,133.965 95.518,129.499 96.827 C 126.401 97.735,124.000 99.635,124.000 101.179 C 124.000 105.244,120.260 109.247,115.354 110.434 C 112.901 111.028,110.967 112.782,110.602 114.743 C 109.647 119.879,105.297 124.000,100.833 124.000 C 99.811 124.000,97.721 126.420,97.391 127.984 C 96.294 133.191,92.182 137.200,87.938 137.200 C 86.806 137.200,84.006 140.066,83.978 141.253 C 83.881 145.365,80.227 149.255,75.354 150.434 C 72.899 151.028,70.966 152.782,70.605 154.743 C 69.695 159.690,66.497 162.976,61.778 163.815 C 59.679 164.188,57.654 166.121,57.346 168.046 C 56.652 172.388,53.414 175.937,49.310 176.855 C 47.743 177.206,46.550 177.785,45.600 178.657 L 44.200 179.943 45.375 181.171 L 46.550 182.400 200.000 182.400 L 353.450 182.400 354.625 181.171 L 355.800 179.943 354.400 178.657 C 353.450 177.785,352.257 177.206,350.690 176.855 C 346.586 175.937,343.348 172.388,342.654 168.046 C 342.346 166.121,340.321 164.188,338.222 163.815 C 333.503 162.976,330.305 159.690,329.395 154.743 C 329.034 152.782,327.101 151.028,324.646 150.434 C 319.773 149.255,316.119 145.365,316.022 141.253 C 315.994 140.066,313.194 137.200,312.062 137.200 C 307.818 137.200,303.706 133.191,302.609 127.984 C 302.279 126.420,300.189 124.000,299.167 124.000 C 294.703 124.000,290.353 119.879,289.398 114.743 C 289.033 112.782,287.099 111.028,284.646 110.434 C 279.740 109.247,276.000 105.244,276.000 101.179 C 276.000 99.635,273.599 97.735,270.501 96.827 C 266.035 95.518,263.480 92.634,262.591 87.895 C 262.244 86.044,260.244 84.174,258.229 83.816 C 253.815 83.032,250.896 80.357,249.774 76.071 C 248.936 72.865,247.392 70.998,245.257 70.605 C 240.210 69.676,236.000 65.398,236.000 61.199 C 236.000 59.721,233.746 57.714,231.492 57.184 C 226.377 55.980,223.530 53.022,222.594 47.939 C 222.221 45.910,220.602 44.512,217.776 43.780 C 213.285 42.617,210.919 40.319,209.763 36.000 C 209.315 34.326,208.635 32.937,207.855 32.100 L 206.643 30.800 200.000 30.800 L 193.357 30.800 192.078 32.119 M18.878 205.319 L 17.600 206.638 17.600 306.644 L 17.600 406.650 18.722 407.725 L 19.844 408.800 113.243 408.800 L 206.643 408.800 207.918 407.485 L 209.193 406.169 209.296 318.385 L 209.400 230.600 210.351 228.497 C 211.528 225.892,213.260 224.334,216.205 223.233 C 218.464 222.387,218.635 222.384,253.937 222.492 L 289.400 222.600 291.703 223.731 C 294.465 225.087,295.818 226.744,296.838 230.023 C 297.577 232.399,297.600 235.048,297.600 319.561 L 297.600 406.650 298.722 407.725 L 299.844 408.800 340.047 408.800 L 380.250 408.800 381.325 407.678 L 382.400 406.556 382.400 306.557 L 382.400 206.557 381.081 205.278 L 379.762 204.000 199.959 204.000 L 20.157 204.000 18.878 205.319 M155.478 249.363 C 164.548 251.777,164.477 251.418,164.322 294.400 L 164.200 328.200 163.294 330.439 C 162.142 333.286,160.086 335.342,157.239 336.494 L 155.000 337.400 120.000 337.400 L 85.000 337.400 82.761 336.494 C 79.914 335.342,77.858 333.286,76.706 330.439 L 75.800 328.200 75.678 294.400 C 75.523 251.553,75.471 251.828,84.339 249.384 C 87.177 248.602,152.547 248.582,155.478 249.363 " stroke="none" fill="#949494" fill-rule="evenodd"></path><path id="path1" d="M191.360 27.531 C 189.352 28.988,187.421 31.199,186.385 33.229 C 185.160 35.630,183.002 37.823,180.255 39.457 C 177.014 41.385,174.560 43.757,173.341 46.136 C 171.930 48.893,169.579 51.283,166.456 53.139 C 163.392 54.959,160.865 57.505,159.586 60.060 C 158.364 62.502,156.236 64.609,153.175 66.406 C 150.237 68.131,147.679 70.693,146.411 73.178 C 145.132 75.685,142.960 77.870,140.035 79.591 C 136.740 81.531,134.619 83.594,133.354 86.091 C 131.934 88.894,129.857 91.012,126.675 92.902 C 123.261 94.930,121.585 96.610,119.594 100.000 C 117.764 103.115,116.204 104.661,113.000 106.532 C 109.882 108.353,108.303 109.944,106.410 113.170 C 104.556 116.330,103.007 117.861,99.750 119.755 C 96.702 121.527,94.826 123.380,93.248 126.176 C 91.443 129.375,89.823 131.032,86.667 132.907 C 83.107 135.022,81.663 136.468,79.625 139.958 C 77.843 143.008,75.625 145.147,72.686 146.649 C 70.292 147.873,67.822 150.389,66.549 152.901 C 65.093 155.774,63.071 157.785,59.509 159.901 C 56.160 161.891,55.096 163.004,52.661 167.066 C 50.957 169.910,49.447 171.342,46.187 173.207 C 38.977 177.332,38.390 180.904,44.200 185.287 L 46.200 186.796 200.000 186.796 L 353.800 186.796 355.800 185.287 C 359.042 182.841,360.578 180.239,359.698 178.684 C 358.608 176.760,356.351 174.660,353.813 173.207 C 350.553 171.342,349.043 169.910,347.339 167.066 C 344.904 163.004,343.840 161.891,340.491 159.901 C 336.929 157.785,334.907 155.774,333.451 152.901 C 332.178 150.389,329.708 147.873,327.314 146.649 C 324.375 145.147,322.157 143.008,320.375 139.958 C 318.337 136.468,316.893 135.022,313.333 132.907 C 310.177 131.032,308.557 129.375,306.752 126.176 C 305.174 123.380,303.298 121.527,300.250 119.755 C 296.993 117.861,295.444 116.330,293.590 113.170 C 291.673 109.903,290.125 108.360,286.800 106.400 C 283.679 104.560,282.133 102.996,280.273 99.800 C 278.423 96.619,276.697 94.905,273.325 92.902 C 270.143 91.012,268.066 88.894,266.646 86.091 C 265.381 83.594,263.260 81.531,259.965 79.591 C 257.040 77.870,254.868 75.685,253.589 73.178 C 252.321 70.693,249.763 68.131,246.825 66.406 C 243.764 64.609,241.636 62.502,240.414 60.060 C 239.135 57.505,236.608 54.959,233.544 53.139 C 230.421 51.283,228.070 48.893,226.659 46.136 C 225.440 43.757,222.986 41.385,219.745 39.457 C 216.998 37.823,214.840 35.630,213.615 33.229 C 212.579 31.199,210.648 28.988,208.640 27.531 L 207.080 26.400 200.000 26.400 L 192.920 26.400 191.360 27.531 M207.855 32.100 C 208.635 32.937,209.315 34.326,209.763 36.000 C 210.919 40.319,213.285 42.617,217.776 43.780 C 220.602 44.512,222.221 45.910,222.594 47.939 C 223.530 53.022,226.377 55.980,231.492 57.184 C 233.746 57.714,236.000 59.721,236.000 61.199 C 236.000 65.398,240.210 69.676,245.257 70.605 C 247.392 70.998,248.936 72.865,249.774 76.071 C 250.896 80.357,253.815 83.032,258.229 83.816 C 260.244 84.174,262.244 86.044,262.591 87.895 C 263.480 92.634,266.035 95.518,270.501 96.827 C 273.599 97.735,276.000 99.635,276.000 101.179 C 276.000 105.244,279.740 109.247,284.646 110.434 C 287.099 111.028,289.033 112.782,289.398 114.743 C 290.353 119.879,294.703 124.000,299.167 124.000 C 300.189 124.000,302.279 126.420,302.609 127.984 C 303.706 133.191,307.818 137.200,312.062 137.200 C 313.194 137.200,315.994 140.066,316.022 141.253 C 316.119 145.365,319.773 149.255,324.646 150.434 C 327.101 151.028,329.034 152.782,329.395 154.743 C 330.305 159.690,333.503 162.976,338.222 163.815 C 340.321 164.188,342.346 166.121,342.654 168.046 C 343.348 172.388,346.586 175.937,350.690 176.855 C 352.257 177.206,353.450 177.785,354.400 178.657 L 355.800 179.943 354.625 181.171 L 353.450 182.400 200.000 182.400 L 46.550 182.400 45.375 181.171 L 44.200 179.943 45.600 178.657 C 46.550 177.785,47.743 177.206,49.310 176.855 C 53.414 175.937,56.652 172.388,57.346 168.046 C 57.654 166.121,59.679 164.188,61.778 163.815 C 66.497 162.976,69.695 159.690,70.605 154.743 C 70.966 152.782,72.899 151.028,75.354 150.434 C 80.227 149.255,83.881 145.365,83.978 141.253 C 84.006 140.066,86.806 137.200,87.938 137.200 C 92.182 137.200,96.294 133.191,97.391 127.984 C 97.721 126.420,99.811 124.000,100.833 124.000 C 105.297 124.000,109.647 119.879,110.602 114.743 C 110.967 112.782,112.901 111.028,115.354 110.434 C 120.260 109.247,124.000 105.244,124.000 101.179 C 124.000 99.635,126.401 97.735,129.499 96.827 C 133.965 95.518,136.520 92.634,137.409 87.895 C 137.756 86.044,139.756 84.174,141.771 83.816 C 146.185 83.032,149.104 80.357,150.226 76.071 C 150.965 73.245,152.745 70.800,154.063 70.800 C 158.453 70.800,164.000 65.441,164.000 61.199 C 164.000 59.721,166.254 57.714,168.508 57.184 C 173.623 55.980,176.470 53.022,177.406 47.939 C 177.779 45.910,179.398 44.512,182.224 43.780 C 187.027 42.536,190.800 38.254,190.800 34.048 C 190.800 33.712,191.375 32.845,192.078 32.119 L 193.357 30.800 200.000 30.800 L 206.643 30.800 207.855 32.100 M17.744 200.927 C 16.675 201.656,15.215 203.117,14.500 204.172 L 13.200 206.090 13.200 306.566 L 13.200 407.042 14.448 408.740 C 15.135 409.673,16.511 411.059,17.506 411.818 L 19.315 413.200 113.212 413.200 L 207.110 413.200 209.028 411.900 C 210.083 411.185,211.544 409.725,212.273 408.656 L 213.600 406.713 213.600 319.787 L 213.600 232.862 214.912 231.143 C 215.633 230.197,216.997 228.833,217.943 228.112 L 219.662 226.800 253.331 226.810 L 287.000 226.820 288.832 228.165 C 289.840 228.904,291.235 230.371,291.932 231.423 L 293.200 233.337 293.200 320.211 L 293.200 407.085 294.582 408.894 C 295.341 409.889,296.727 411.265,297.660 411.952 L 299.358 413.200 340.021 413.200 L 380.685 413.200 382.494 411.818 C 383.489 411.059,384.865 409.673,385.552 408.740 L 386.800 407.042 386.800 306.565 L 386.800 206.087 385.477 204.167 C 384.749 203.111,383.289 201.651,382.233 200.923 L 380.313 199.600 200.000 199.600 L 19.687 199.600 17.744 200.927 M381.081 205.278 L 382.400 206.557 382.400 306.557 L 382.400 406.556 381.325 407.678 L 380.250 408.800 340.047 408.800 L 299.844 408.800 298.722 407.725 L 297.600 406.650 297.600 319.561 C 297.600 235.048,297.577 232.399,296.838 230.023 C 295.818 226.744,294.465 225.087,291.703 223.731 L 289.400 222.600 253.937 222.492 C 218.635 222.384,218.464 222.387,216.205 223.233 C 213.260 224.334,211.528 225.892,210.351 228.497 L 209.400 230.600 209.296 318.385 L 209.193 406.169 207.918 407.485 L 206.643 408.800 113.243 408.800 L 19.844 408.800 18.722 407.725 L 17.600 406.650 17.600 306.644 L 17.600 206.638 18.878 205.319 L 20.157 204.000 199.959 204.000 L 379.762 204.000 381.081 205.278 M231.481 244.717 L 230.000 246.234 230.000 326.434 L 230.000 406.633 231.715 408.317 L 233.430 410.000 253.368 410.000 L 273.305 410.000 275.053 408.253 L 276.800 406.505 276.800 326.453 L 276.800 246.400 275.200 244.800 L 273.600 243.200 253.281 243.200 L 232.962 243.200 231.481 244.717 M84.339 249.384 C 75.471 251.828,75.523 251.553,75.678 294.400 L 75.800 328.200 76.706 330.439 C 77.858 333.286,79.914 335.342,82.761 336.494 L 85.000 337.400 120.000 337.400 L 155.000 337.400 157.239 336.494 C 160.086 335.342,162.142 333.286,163.294 330.439 L 164.200 328.200 164.322 294.400 C 164.477 251.418,164.548 251.777,155.478 249.363 C 152.547 248.582,87.177 248.602,84.339 249.384 M155.290 254.663 C 156.134 255.247,157.449 256.576,158.212 257.616 L 159.600 259.507 159.589 293.254 L 159.578 327.000 158.480 328.449 C 157.287 330.024,155.508 331.614,154.126 332.341 C 152.835 333.019,86.934 332.967,85.767 332.286 C 84.385 331.480,83.064 330.287,81.697 328.609 L 80.400 327.018 80.400 293.274 L 80.400 259.531 81.691 257.733 C 82.401 256.744,83.697 255.410,84.570 254.768 L 86.158 253.600 119.957 253.600 L 153.757 253.600 155.290 254.663 M262.425 304.010 C 266.116 305.465,268.485 308.114,269.613 312.045 C 270.538 315.270,266.666 320.719,262.300 322.337 L 260.000 323.189 257.700 322.337 C 253.334 320.719,249.462 315.270,250.387 312.045 C 252.162 305.857,257.712 302.152,262.425 304.010 " stroke="none" fill="#646464" fill-rule="evenodd"></path><path id="path2" d="M180.000 3.400 L 180.000 6.800 173.880 6.800 C 166.250 6.800,166.800 6.250,166.800 13.880 L 166.800 20.000 160.974 20.000 C 153.187 20.000,153.746 19.488,153.396 26.943 L 153.108 33.104 147.105 33.274 C 139.543 33.489,140.000 33.000,140.000 40.876 L 140.000 46.800 133.880 46.800 C 126.250 46.800,126.800 46.250,126.800 53.880 L 126.800 60.000 120.876 60.000 C 113.196 60.000,113.715 59.512,113.370 67.052 L 113.093 73.104 107.098 73.274 C 99.544 73.489,100.000 73.001,100.000 80.876 L 100.000 86.800 93.880 86.800 C 86.250 86.800,86.800 86.250,86.800 93.880 L 86.800 100.000 80.876 100.000 C 73.195 100.000,73.716 99.510,73.369 107.064 L 73.092 113.129 67.113 113.264 C 59.554 113.436,60.000 112.959,60.000 120.876 L 60.000 126.800 53.880 126.800 C 46.250 126.800,46.800 126.250,46.800 133.880 L 46.800 140.000 40.649 140.000 C 33.176 140.000,33.742 139.451,33.380 147.059 L 33.092 153.117 26.979 153.259 C 19.584 153.430,20.227 152.786,20.073 160.178 L 19.945 166.291 13.873 166.580 C 6.249 166.942,6.800 166.376,6.800 173.849 L 6.800 180.000 3.400 180.000 L 0.000 180.000 0.000 303.200 L 0.000 426.400 200.000 426.400 L 400.000 426.400 400.000 303.200 L 400.000 180.000 396.600 180.000 L 393.200 180.000 393.200 173.849 C 393.200 166.376,393.751 166.942,386.127 166.580 L 380.055 166.291 379.927 160.178 C 379.773 152.785,380.417 153.430,373.016 153.258 L 366.898 153.117 366.610 147.058 C 366.247 139.445,366.817 140.000,359.351 140.000 L 353.200 140.000 353.200 133.880 C 353.200 126.250,353.750 126.800,346.120 126.800 L 340.000 126.800 340.000 120.876 C 340.000 112.958,340.447 113.436,332.880 113.264 L 326.894 113.129 326.604 106.956 C 326.254 99.487,326.814 100.000,319.026 100.000 L 313.200 100.000 313.200 93.880 C 313.200 86.250,313.750 86.800,306.120 86.800 L 300.000 86.800 300.000 80.876 C 300.000 73.000,300.457 73.489,292.895 73.274 L 286.892 73.104 286.604 66.943 C 286.254 59.488,286.813 60.000,279.026 60.000 L 273.200 60.000 273.200 53.880 C 273.200 46.252,273.745 46.800,266.148 46.800 L 260.056 46.800 259.928 40.619 C 259.769 32.943,260.291 33.484,252.847 33.273 L 246.892 33.104 246.603 26.925 C 246.254 19.492,246.828 20.000,238.774 20.000 L 233.200 20.000 233.200 13.880 C 233.200 6.250,233.750 6.800,226.120 6.800 L 220.000 6.800 220.000 3.400 L 220.000 0.000 200.000 0.000 L 180.000 0.000 180.000 3.400 M208.262 23.796 C 212.059 24.924,215.609 28.507,216.235 31.845 C 216.574 33.651,218.898 36.240,220.706 36.826 C 225.458 38.364,227.743 40.465,229.410 44.826 C 230.672 48.128,231.823 49.238,235.557 50.757 C 239.797 52.481,241.636 54.542,243.176 59.298 C 243.760 61.104,246.307 63.263,248.635 63.927 C 252.083 64.910,255.635 68.646,256.252 71.938 C 256.608 73.834,259.292 76.464,261.564 77.143 C 265.536 78.330,267.755 80.495,269.392 84.780 C 270.523 87.739,272.384 89.780,274.400 90.271 C 277.990 91.145,280.641 93.430,282.209 97.000 C 283.939 100.937,284.140 101.266,285.396 102.222 C 286.058 102.726,287.604 103.514,288.832 103.973 C 292.659 105.402,296.380 109.603,296.396 112.511 C 296.403 113.815,299.624 116.547,302.048 117.305 C 305.003 118.229,307.553 120.493,308.752 123.255 C 309.264 124.435,309.979 126.016,310.341 126.770 C 311.014 128.169,313.677 130.400,314.673 130.400 C 317.079 130.400,320.705 133.575,322.209 137.000 C 323.939 140.937,324.140 141.266,325.396 142.222 C 326.058 142.726,327.604 143.514,328.832 143.973 C 332.654 145.401,336.380 149.602,336.396 152.502 C 336.403 153.774,339.677 156.552,342.049 157.300 C 345.715 158.456,348.819 161.825,349.737 165.647 C 350.145 167.344,352.843 169.714,355.327 170.558 C 365.508 174.016,365.321 185.852,355.029 189.333 C 351.986 190.363,48.014 190.363,44.971 189.333 C 34.679 185.852,34.492 174.016,44.673 170.558 C 47.157 169.714,49.855 167.344,50.263 165.647 C 51.181 161.825,54.285 158.456,57.951 157.300 C 60.323 156.552,63.597 153.774,63.604 152.502 C 63.620 149.532,67.392 145.357,71.366 143.907 C 74.296 142.839,76.430 140.813,77.147 138.419 C 78.318 134.510,82.510 130.400,85.327 130.400 C 86.323 130.400,88.986 128.169,89.659 126.770 C 90.021 126.016,90.736 124.435,91.248 123.255 C 92.447 120.493,94.997 118.229,97.952 117.305 C 100.376 116.547,103.597 113.815,103.604 112.511 C 103.620 109.533,107.386 105.358,111.366 103.907 C 114.296 102.839,116.430 100.813,117.147 98.419 C 118.371 94.335,121.568 91.253,125.600 90.271 C 127.616 89.780,129.477 87.739,130.608 84.780 C 132.245 80.495,134.464 78.330,138.436 77.143 C 140.708 76.464,143.392 73.834,143.748 71.938 C 144.365 68.646,147.917 64.910,151.365 63.927 C 153.693 63.263,156.240 61.104,156.824 59.298 C 158.364 54.542,160.203 52.481,164.443 50.757 C 168.177 49.238,169.328 48.128,170.590 44.826 C 172.257 40.465,174.542 38.364,179.294 36.826 C 181.102 36.240,183.426 33.651,183.765 31.845 C 184.374 28.602,187.602 25.230,191.333 23.940 C 194.093 22.987,205.217 22.892,208.262 23.796 M383.000 197.525 C 385.539 198.699,387.384 200.460,388.736 203.000 L 389.800 205.000 389.903 305.877 L 390.006 406.753 389.151 409.039 C 388.036 412.020,385.702 414.348,382.664 415.508 L 380.329 416.400 340.000 416.400 L 299.671 416.400 297.336 415.508 C 294.302 414.349,291.964 412.020,290.852 409.048 L 290.000 406.770 290.000 319.902 L 290.000 233.034 288.519 231.517 L 287.038 230.000 253.375 230.000 L 219.712 230.000 218.356 231.387 L 217.000 232.774 216.800 320.087 L 216.600 407.400 215.680 409.400 C 214.515 411.930,212.748 413.780,210.200 415.136 L 208.200 416.200 114.000 416.307 L 19.800 416.414 17.405 415.523 C 14.310 414.371,11.983 412.070,10.849 409.039 L 9.994 406.753 10.097 305.877 L 10.200 205.000 11.269 202.975 C 12.111 201.379,15.132 198.000,15.717 198.000 C 15.779 198.000,16.814 197.646,18.015 197.214 C 20.177 196.435,22.128 196.428,200.600 196.514 L 381.000 196.600 383.000 197.525 M275.148 239.328 C 277.487 240.580,279.486 242.602,280.646 244.891 L 281.606 246.785 281.503 326.955 L 281.400 407.125 279.793 409.462 C 278.712 411.036,277.475 412.225,276.011 413.100 L 273.835 414.400 253.505 414.400 C 237.160 414.400,232.916 414.292,231.858 413.850 C 229.905 413.034,227.688 410.925,226.373 408.631 L 225.208 406.600 225.204 326.484 C 225.200 235.770,224.847 245.153,228.397 241.603 C 231.727 238.273,230.446 238.438,253.206 238.418 L 273.412 238.400 275.148 239.328 M84.883 258.115 L 83.200 259.830 83.200 293.168 L 83.200 326.505 84.947 328.253 L 86.695 330.000 120.000 330.000 L 153.305 330.000 155.053 328.253 L 156.800 326.505 156.800 293.136 L 156.800 259.767 155.085 258.083 L 153.370 256.400 119.968 256.400 L 86.567 256.400 84.883 258.115 M140.000 293.200 L 140.000 313.200 120.000 313.200 L 100.000 313.200 100.000 293.200 L 100.000 273.200 120.000 273.200 L 140.000 273.200 140.000 293.200 M257.136 310.336 C 255.851 311.621,254.800 312.895,254.800 313.168 C 254.800 313.795,259.376 318.400,260.000 318.400 C 260.624 318.400,265.200 313.795,265.200 313.168 C 265.200 312.503,260.669 308.000,260.000 308.000 C 259.710 308.000,258.421 309.051,257.136 310.336 " stroke="none" fill="#040404" fill-rule="evenodd"></path><path id="path3" d="" stroke="none" fill="#643480" fill-rule="evenodd"></path><path id="path4" d="M191.333 23.940 C 187.602 25.230,184.374 28.602,183.765 31.845 C 183.426 33.651,181.102 36.240,179.294 36.826 C 174.542 38.364,172.257 40.465,170.590 44.826 C 169.328 48.128,168.177 49.238,164.443 50.757 C 160.203 52.481,158.364 54.542,156.824 59.298 C 156.240 61.104,153.693 63.263,151.365 63.927 C 147.917 64.910,144.365 68.646,143.748 71.938 C 143.392 73.834,140.708 76.464,138.436 77.143 C 134.464 78.330,132.245 80.495,130.608 84.780 C 129.477 87.739,127.616 89.780,125.600 90.271 C 121.568 91.253,118.371 94.335,117.147 98.419 C 116.430 100.813,114.296 102.839,111.366 103.907 C 107.386 105.358,103.620 109.533,103.604 112.511 C 103.597 113.815,100.376 116.547,97.952 117.305 C 94.997 118.229,92.447 120.493,91.248 123.255 C 90.736 124.435,90.021 126.016,89.659 126.770 C 88.986 128.169,86.323 130.400,85.327 130.400 C 82.510 130.400,78.318 134.510,77.147 138.419 C 76.430 140.813,74.296 142.839,71.366 143.907 C 67.392 145.357,63.620 149.532,63.604 152.502 C 63.597 153.774,60.323 156.552,57.951 157.300 C 54.285 158.456,51.181 161.825,50.263 165.647 C 49.855 167.344,47.157 169.714,44.673 170.558 C 34.492 174.016,34.679 185.852,44.971 189.333 C 48.014 190.363,351.986 190.363,355.029 189.333 C 365.321 185.852,365.508 174.016,355.327 170.558 C 352.843 169.714,350.145 167.344,349.737 165.647 C 348.819 161.825,345.715 158.456,342.049 157.300 C 339.677 156.552,336.403 153.774,336.396 152.502 C 336.380 149.602,332.654 145.401,328.832 143.973 C 327.604 143.514,326.058 142.726,325.396 142.222 C 324.140 141.266,323.939 140.937,322.209 137.000 C 320.705 133.575,317.079 130.400,314.673 130.400 C 313.677 130.400,311.014 128.169,310.341 126.770 C 309.979 126.016,309.264 124.435,308.752 123.255 C 307.553 120.493,305.003 118.229,302.048 117.305 C 299.624 116.547,296.403 113.815,296.396 112.511 C 296.380 109.603,292.659 105.402,288.832 103.973 C 287.604 103.514,286.058 102.726,285.396 102.222 C 284.140 101.266,283.939 100.937,282.209 97.000 C 280.641 93.430,277.990 91.145,274.400 90.271 C 272.384 89.780,270.523 87.739,269.392 84.780 C 267.755 80.495,265.536 78.330,261.564 77.143 C 259.292 76.464,256.608 73.834,256.252 71.938 C 255.635 68.646,252.083 64.910,248.635 63.927 C 246.307 63.263,243.760 61.104,243.176 59.298 C 241.636 54.542,239.797 52.481,235.557 50.757 C 231.823 49.238,230.672 48.128,229.410 44.826 C 227.743 40.465,225.458 38.364,220.706 36.826 C 218.898 36.240,216.574 33.651,216.235 31.845 C 215.609 28.507,212.059 24.924,208.262 23.796 C 205.217 22.892,194.093 22.987,191.333 23.940 M208.640 27.531 C 210.648 28.988,212.579 31.199,213.615 33.229 C 214.840 35.630,216.998 37.823,219.745 39.457 C 222.986 41.385,225.440 43.757,226.659 46.136 C 228.070 48.893,230.421 51.283,233.544 53.139 C 236.608 54.959,239.135 57.505,240.414 60.060 C 241.636 62.502,243.764 64.609,246.825 66.406 C 249.763 68.131,252.321 70.693,253.589 73.178 C 254.868 75.685,257.040 77.870,259.965 79.591 C 263.260 81.531,265.381 83.594,266.646 86.091 C 268.066 88.894,270.143 91.012,273.325 92.902 C 276.697 94.905,278.423 96.619,280.273 99.800 C 282.133 102.996,283.679 104.560,286.800 106.400 C 290.125 108.360,291.673 109.903,293.590 113.170 C 295.444 116.330,296.993 117.861,300.250 119.755 C 303.298 121.527,305.174 123.380,306.752 126.176 C 308.557 129.375,310.177 131.032,313.333 132.907 C 316.893 135.022,318.337 136.468,320.375 139.958 C 322.157 143.008,324.375 145.147,327.314 146.649 C 329.708 147.873,332.178 150.389,333.451 152.901 C 334.907 155.774,336.929 157.785,340.491 159.901 C 343.840 161.891,344.904 163.004,347.339 167.066 C 349.043 169.910,350.553 171.342,353.813 173.207 C 356.351 174.660,358.608 176.760,359.698 178.684 C 360.578 180.239,359.042 182.841,355.800 185.287 L 353.800 186.796 200.000 186.796 L 46.200 186.796 44.200 185.287 C 38.390 180.904,38.977 177.332,46.187 173.207 C 49.447 171.342,50.957 169.910,52.661 167.066 C 55.096 163.004,56.160 161.891,59.509 159.901 C 63.071 157.785,65.093 155.774,66.549 152.901 C 67.822 150.389,70.292 147.873,72.686 146.649 C 75.625 145.147,77.843 143.008,79.625 139.958 C 81.663 136.468,83.107 135.022,86.667 132.907 C 89.823 131.032,91.443 129.375,93.248 126.176 C 94.826 123.380,96.702 121.527,99.750 119.755 C 103.007 117.861,104.556 116.330,106.410 113.170 C 108.303 109.944,109.882 108.353,113.000 106.532 C 116.204 104.661,117.764 103.115,119.594 100.000 C 121.585 96.610,123.261 94.930,126.675 92.902 C 129.857 91.012,131.934 88.894,133.354 86.091 C 134.619 83.594,136.740 81.531,140.035 79.591 C 142.960 77.870,145.132 75.685,146.411 73.178 C 147.679 70.693,150.237 68.131,153.175 66.406 C 156.236 64.609,158.364 62.502,159.586 60.060 C 160.865 57.505,163.392 54.959,166.456 53.139 C 169.579 51.283,171.930 48.893,173.341 46.136 C 174.560 43.757,177.014 41.385,180.255 39.457 C 183.002 37.823,185.160 35.630,186.385 33.229 C 187.421 31.199,189.352 28.988,191.360 27.531 L 192.920 26.400 200.000 26.400 L 207.080 26.400 208.640 27.531 M18.015 197.214 C 16.814 197.646,15.779 198.000,15.717 198.000 C 15.132 198.000,12.111 201.379,11.269 202.975 L 10.200 205.000 10.097 305.877 L 9.994 406.753 10.849 409.039 C 11.983 412.070,14.310 414.371,17.405 415.523 L 19.800 416.414 114.000 416.307 L 208.200 416.200 210.200 415.136 C 212.748 413.780,214.515 411.930,215.680 409.400 L 216.600 407.400 216.800 320.087 L 217.000 232.774 218.356 231.387 L 219.712 230.000 253.375 230.000 L 287.038 230.000 288.519 231.517 L 290.000 233.034 290.000 319.902 L 290.000 406.770 290.852 409.048 C 291.964 412.020,294.302 414.349,297.336 415.508 L 299.671 416.400 340.000 416.400 L 380.329 416.400 382.664 415.508 C 385.702 414.348,388.036 412.020,389.151 409.039 L 390.006 406.753 389.903 305.877 L 389.800 205.000 388.736 203.000 C 387.384 200.460,385.539 198.699,383.000 197.525 L 381.000 196.600 200.600 196.514 C 22.128 196.428,20.177 196.435,18.015 197.214 M382.233 200.923 C 383.289 201.651,384.749 203.111,385.477 204.167 L 386.800 206.087 386.800 306.565 L 386.800 407.042 385.552 408.740 C 384.865 409.673,383.489 411.059,382.494 411.818 L 380.685 413.200 340.021 413.200 L 299.358 413.200 297.660 411.952 C 296.727 411.265,295.341 409.889,294.582 408.894 L 293.200 407.085 293.200 320.211 L 293.200 233.337 291.932 231.423 C 291.235 230.371,289.840 228.904,288.832 228.165 L 287.000 226.820 253.331 226.810 L 219.662 226.800 217.943 228.112 C 216.997 228.833,215.633 230.197,214.912 231.143 L 213.600 232.862 213.600 319.787 L 213.600 406.713 212.273 408.656 C 211.544 409.725,210.083 411.185,209.028 411.900 L 207.110 413.200 113.212 413.200 L 19.315 413.200 17.506 411.818 C 16.511 411.059,15.135 409.673,14.448 408.740 L 13.200 407.042 13.200 306.566 L 13.200 206.090 14.500 204.172 C 15.215 203.117,16.675 201.656,17.744 200.927 L 19.687 199.600 200.000 199.600 L 380.313 199.600 382.233 200.923 M231.480 239.237 C 229.485 240.290,227.036 242.769,226.017 244.767 C 225.202 246.363,225.200 246.611,225.204 326.484 L 225.208 406.600 226.373 408.631 C 227.688 410.925,229.905 413.034,231.858 413.850 C 232.916 414.292,237.160 414.400,253.505 414.400 L 273.835 414.400 276.011 413.100 C 277.475 412.225,278.712 411.036,279.793 409.462 L 281.400 407.125 281.503 326.955 L 281.606 246.785 280.646 244.891 C 279.486 242.602,277.487 240.580,275.148 239.328 L 273.412 238.400 253.206 238.418 C 233.774 238.435,232.942 238.466,231.480 239.237 M275.200 244.800 L 276.800 246.400 276.800 326.453 L 276.800 406.505 275.053 408.253 L 273.305 410.000 253.368 410.000 L 233.430 410.000 231.715 408.317 L 230.000 406.633 230.000 326.434 L 230.000 246.234 231.481 244.717 L 232.962 243.200 253.281 243.200 L 273.600 243.200 275.200 244.800 M84.570 254.768 C 83.697 255.410,82.401 256.744,81.691 257.733 L 80.400 259.531 80.400 293.274 L 80.400 327.018 81.697 328.609 C 83.064 330.287,84.385 331.480,85.767 332.286 C 86.934 332.967,152.835 333.019,154.126 332.341 C 155.508 331.614,157.287 330.024,158.480 328.449 L 159.578 327.000 159.589 293.254 L 159.600 259.507 158.212 257.616 C 157.449 256.576,156.134 255.247,155.290 254.663 L 153.757 253.600 119.957 253.600 L 86.158 253.600 84.570 254.768 M155.085 258.083 L 156.800 259.767 156.800 293.136 L 156.800 326.505 155.053 328.253 L 153.305 330.000 120.000 330.000 L 86.695 330.000 84.947 328.253 L 83.200 326.505 83.200 293.168 L 83.200 259.830 84.883 258.115 L 86.567 256.400 119.968 256.400 L 153.370 256.400 155.085 258.083 M257.463 304.030 C 253.867 305.489,251.498 308.173,250.387 312.045 C 249.462 315.270,253.334 320.719,257.700 322.337 L 260.000 323.189 262.300 322.337 C 266.666 320.719,270.538 315.270,269.613 312.045 C 267.832 305.834,262.189 302.112,257.463 304.030 M262.864 310.336 C 264.149 311.621,265.200 312.895,265.200 313.168 C 265.200 313.795,260.624 318.400,260.000 318.400 C 259.376 318.400,254.800 313.795,254.800 313.168 C 254.800 312.503,259.331 308.000,260.000 308.000 C 260.290 308.000,261.579 309.051,262.864 310.336 " stroke="none" fill="#18504c" fill-rule="evenodd"></path></g></svg>