<svg id="svg" version="1.1" xmlns="http://www.w3.org/2000/svg" xmlns:xlink="http://www.w3.org/1999/xlink" width="400" height="426.6666666666667" viewBox="0, 0, 400,426.6666666666667"><g id="svgg"><path id="path0" d="M191.600 28.701 C 189.660 30.214,189.072 30.944,186.899 34.539 C 184.972 37.726,182.998 39.546,179.897 40.993 C 177.770 41.985,174.519 45.673,173.968 47.720 C 172.914 51.634,171.313 53.472,167.526 55.118 C 165.044 56.196,161.901 59.442,162.241 60.575 C 163.887 66.057,165.305 66.598,173.257 64.775 C 190.488 60.826,210.402 61.359,227.277 66.222 C 235.712 68.652,237.366 67.935,238.254 61.461 C 238.558 59.239,235.676 55.943,232.074 54.394 C 229.457 53.268,227.105 50.724,226.221 48.064 C 225.403 45.600,222.306 42.021,220.103 40.993 C 217.002 39.546,215.028 37.726,213.101 34.539 C 210.893 30.887,210.309 30.166,208.362 28.690 L 206.924 27.600 199.962 27.604 L 193.000 27.609 191.600 28.701 M244.986 71.071 C 243.879 71.291,241.816 72.980,242.100 73.434 C 242.226 73.635,243.345 74.340,244.586 75.000 L 246.842 76.200 248.056 74.855 L 249.269 73.510 247.956 72.155 C 247.234 71.410,246.453 70.825,246.222 70.854 C 245.990 70.884,245.434 70.982,244.986 71.071 M191.600 90.388 C 190.830 90.552,187.950 91.094,185.200 91.593 C 181.357 92.290,178.857 93.052,174.400 94.883 C 166.206 98.249,164.858 98.950,162.600 101.013 C 161.500 102.018,158.769 104.274,156.532 106.026 C 151.513 109.956,149.596 112.065,146.888 116.636 C 145.727 118.596,143.707 121.689,142.400 123.510 C 136.554 131.650,134.000 144.928,134.000 167.180 L 134.000 179.959 135.317 180.964 C 141.261 185.497,142.679 185.600,199.304 185.600 L 246.636 185.600 250.504 184.595 C 254.973 183.433,259.007 181.814,260.300 180.662 C 261.198 179.862,261.200 179.832,261.199 167.030 C 261.197 148.654,260.523 142.036,258.031 135.912 C 257.201 133.870,256.106 130.940,255.600 129.400 C 255.093 127.860,253.653 124.980,252.399 123.000 C 251.146 121.020,249.364 118.018,248.440 116.328 C 247.103 113.886,246.170 112.781,243.879 110.931 C 242.296 109.652,239.106 106.804,236.790 104.603 C 229.071 97.263,214.547 91.281,202.800 90.603 C 194.674 90.135,192.952 90.101,191.600 90.388 M272.217 99.181 C 271.540 99.930,271.548 100.021,272.418 101.429 L 273.324 102.896 274.053 101.948 C 274.984 100.738,274.988 99.894,274.069 99.062 C 273.148 98.229,273.075 98.233,272.217 99.181 M285.137 109.190 C 283.513 109.680,281.883 110.757,281.032 111.899 L 280.264 112.931 282.504 119.565 C 283.736 123.214,285.128 127.730,285.598 129.600 C 286.068 131.470,286.980 134.496,287.624 136.325 C 289.664 142.118,290.726 154.545,290.781 173.269 L 290.800 179.938 292.485 181.380 C 293.412 182.174,295.347 183.403,296.785 184.111 L 299.400 185.400 326.600 185.511 L 353.800 185.621 355.911 183.770 C 360.075 180.119,359.448 177.612,353.568 174.400 C 350.430 172.686,347.117 169.465,345.960 167.004 C 344.779 164.493,342.243 161.990,339.277 160.409 C 336.424 158.888,334.078 156.517,332.662 153.722 C 331.353 151.140,328.900 148.667,326.378 147.389 C 323.484 145.922,320.998 143.487,319.493 140.642 C 317.855 137.549,315.622 135.303,312.731 133.845 C 309.353 132.141,307.958 130.808,306.201 127.602 C 304.304 124.141,301.416 121.385,299.063 120.790 C 294.680 119.682,292.577 117.943,291.424 114.472 C 290.805 112.610,287.433 108.735,286.517 108.834 C 286.343 108.853,285.722 109.013,285.137 109.190 M112.321 112.300 C 111.208 113.491,111.182 114.432,112.211 116.421 C 113.025 117.996,113.286 117.918,114.320 115.789 C 115.423 113.519,115.419 113.145,114.275 112.070 L 113.349 111.201 112.321 112.300 M97.773 122.920 C 96.625 123.953,95.118 125.926,94.204 127.593 C 92.368 130.942,91.190 132.041,87.605 133.749 C 84.430 135.262,82.219 137.409,80.507 140.642 C 79.002 143.487,76.516 145.922,73.622 147.389 C 71.100 148.667,68.647 151.140,67.338 153.722 C 65.922 156.517,63.576 158.888,60.723 160.409 C 57.757 161.990,55.221 164.493,54.040 167.004 C 52.883 169.465,49.570 172.686,46.432 174.400 C 40.556 177.610,39.925 180.123,44.083 183.760 L 46.186 185.600 67.273 185.600 C 83.836 185.600,89.372 185.469,93.080 184.990 C 100.123 184.080,100.255 184.042,102.822 182.152 L 105.200 180.402 105.200 172.862 C 105.200 154.422,105.948 141.167,107.433 133.290 C 109.273 123.527,108.712 122.387,101.580 121.388 C 99.844 121.145,99.670 121.215,97.773 122.920 M18.340 201.783 C 17.544 202.323,16.243 203.652,15.447 204.736 L 14.000 206.707 14.000 306.522 L 14.000 406.338 15.312 408.057 C 16.033 409.003,17.428 410.393,18.412 411.147 L 20.200 412.516 40.400 412.272 C 57.868 412.060,61.195 411.922,65.000 411.252 C 71.585 410.092,78.223 408.288,80.914 406.928 L 82.028 406.365 80.019 404.777 C 77.495 402.782,75.340 400.069,73.127 396.098 L 71.400 393.000 71.273 313.861 C 71.129 223.719,71.147 223.125,74.136 218.057 C 77.145 212.956,82.820 209.535,91.283 207.721 C 94.078 207.122,96.306 206.573,96.233 206.500 C 96.034 206.300,82.778 203.662,78.638 202.998 C 66.600 201.067,61.966 200.800,40.469 200.800 L 19.786 200.800 18.340 201.783 M330.000 201.259 C 327.470 201.449,322.880 202.066,319.800 202.629 C 316.720 203.193,312.670 203.821,310.800 204.026 C 300.596 205.144,299.547 205.315,298.707 205.995 L 297.840 206.697 299.020 207.294 C 299.669 207.622,302.000 208.201,304.200 208.580 C 313.240 210.139,314.634 210.719,318.322 214.455 C 323.934 220.142,323.600 213.927,323.600 312.770 L 323.600 393.227 322.545 395.313 C 320.785 398.796,318.828 401.630,316.494 404.077 C 315.272 405.358,314.346 406.472,314.436 406.554 C 319.004 410.680,332.418 412.381,360.469 412.392 L 379.938 412.400 381.657 411.088 C 382.603 410.367,383.967 409.003,384.688 408.057 L 386.000 406.338 386.000 306.522 L 386.000 206.707 384.553 204.736 C 383.757 203.652,382.456 202.323,381.660 201.783 L 380.214 200.800 357.407 200.856 C 344.863 200.887,332.530 201.068,330.000 201.259 M149.242 205.614 C 147.395 206.037,145.818 206.448,145.738 206.528 C 143.880 208.386,243.142 209.255,248.400 207.426 L 250.600 206.661 248.800 205.831 C 246.069 204.570,154.667 204.371,149.242 205.614 " stroke="none" fill="#666666" fill-rule="evenodd"></path><path id="path1" d="M190.811 24.283 C 188.258 25.201,185.196 28.426,184.246 31.200 C 183.524 33.308,180.762 36.800,179.817 36.800 C 176.843 36.803,172.191 41.036,170.607 45.181 C 169.370 48.419,167.644 50.159,163.878 51.966 C 160.653 53.513,158.896 55.638,157.614 59.540 C 156.198 63.849,155.225 65.186,152.505 66.561 C 145.431 70.136,144.159 78.368,150.438 79.942 C 155.080 81.106,161.596 78.796,164.407 74.990 C 165.273 73.819,166.300 72.766,166.690 72.651 C 176.558 69.743,182.183 69.062,196.600 69.029 C 215.189 68.987,225.594 70.654,229.801 74.348 C 230.542 74.998,231.549 75.657,232.039 75.812 C 232.530 75.968,233.757 76.683,234.766 77.401 C 237.507 79.352,240.138 80.565,244.800 82.028 C 249.368 83.462,251.289 84.875,251.794 87.171 C 252.441 90.120,256.282 93.409,260.000 94.199 C 263.526 94.948,264.086 95.653,265.412 101.009 C 266.781 106.536,269.065 110.408,271.930 112.057 C 272.783 112.548,273.668 113.411,273.897 113.975 C 279.789 128.508,281.719 140.727,282.249 166.851 C 282.557 182.043,282.245 180.747,286.401 184.105 C 289.023 186.223,290.845 187.189,294.600 188.452 L 297.400 189.393 325.716 189.512 L 354.032 189.630 356.441 188.549 C 365.443 184.510,364.608 174.113,355.000 170.602 C 352.548 169.706,350.168 167.531,349.552 165.625 C 348.181 161.381,345.887 158.885,341.989 157.396 C 338.690 156.135,336.749 154.195,335.792 151.200 C 334.804 148.112,331.868 145.216,328.481 143.990 C 325.949 143.074,322.800 140.269,322.800 138.930 C 322.800 135.976,317.126 130.427,314.083 130.404 C 313.390 130.399,309.600 126.826,309.600 126.178 C 309.600 123.213,306.081 119.219,301.994 117.549 C 298.490 116.116,295.808 113.856,295.398 111.992 C 294.763 109.099,290.326 104.960,287.000 104.158 C 283.994 103.432,282.346 102.009,280.563 98.600 C 278.673 94.985,275.576 92.626,271.383 91.607 C 269.225 91.082,268.149 89.997,267.450 87.642 C 266.264 83.649,264.161 81.420,259.508 79.221 C 256.644 77.868,255.912 77.046,255.191 74.366 C 254.142 70.472,251.553 67.359,247.800 65.480 C 245.105 64.131,244.168 63.029,242.756 59.549 C 240.708 54.498,239.017 52.690,234.800 51.043 C 232.200 50.028,230.570 48.261,229.394 45.185 C 227.809 41.036,223.158 36.803,220.183 36.800 C 219.259 36.800,216.475 33.307,215.754 31.243 C 214.810 28.539,212.679 26.087,210.151 24.796 C 207.609 23.498,193.999 23.137,190.811 24.283 M208.834 25.617 C 211.433 26.943,213.406 29.012,214.593 31.655 C 215.938 34.653,218.391 37.192,221.258 38.555 C 224.652 40.168,226.089 41.625,228.195 45.591 C 230.263 49.485,231.379 50.669,234.442 52.221 C 238.278 54.165,240.321 56.650,241.963 61.367 C 242.936 64.164,243.945 65.346,246.443 66.617 C 252.388 69.644,254.914 74.927,252.288 78.841 C 249.883 82.426,241.475 80.262,234.970 74.386 C 226.795 66.999,194.970 64.514,172.412 69.501 L 163.823 71.400 162.212 73.118 C 158.864 76.686,154.138 78.910,152.132 77.862 C 147.005 75.185,147.927 70.825,154.219 67.994 C 157.086 66.705,157.772 65.785,158.420 62.364 C 159.306 57.687,161.490 54.692,165.515 52.635 C 168.272 51.226,169.799 49.517,171.856 45.534 C 173.856 41.660,175.313 40.185,178.742 38.555 C 181.594 37.199,184.061 34.656,185.385 31.705 C 186.594 29.012,188.123 27.353,190.800 25.832 C 193.323 24.399,206.146 24.246,208.834 25.617 M190.800 80.643 C 190.250 80.732,187.640 81.095,185.000 81.448 C 179.579 82.174,177.890 82.867,175.912 85.177 C 174.505 86.821,171.580 88.364,165.220 90.816 C 157.972 93.612,147.577 102.199,142.150 109.874 C 141.090 111.373,139.358 113.650,138.302 114.932 C 135.636 118.169,134.690 120.207,131.594 129.391 C 130.109 133.796,128.705 137.875,128.473 138.457 C 128.242 139.038,127.746 141.648,127.371 144.257 C 126.825 148.050,126.497 149.230,125.730 150.148 C 123.595 152.704,123.589 152.746,123.323 166.738 L 123.074 179.863 124.809 180.557 C 125.763 180.939,127.219 182.018,128.044 182.955 C 131.188 186.527,136.873 188.569,145.400 189.189 C 153.036 189.745,246.477 189.741,250.671 189.185 C 259.302 188.041,261.584 187.285,264.333 184.657 C 267.689 181.448,267.602 181.967,267.585 165.316 C 267.556 137.618,266.006 126.938,261.431 122.911 C 259.515 121.224,256.056 116.116,253.853 111.719 C 252.114 108.249,250.468 106.301,247.800 104.555 C 245.758 103.219,243.443 101.040,240.086 97.296 C 238.580 95.617,237.555 94.927,235.000 93.873 C 229.542 91.621,221.932 87.284,220.400 85.552 C 217.454 82.220,199.441 79.233,190.800 80.643 M261.530 82.350 C 265.196 84.961,266.105 88.429,263.706 90.652 C 259.696 94.369,252.013 88.150,254.512 83.211 C 255.487 81.285,259.366 80.809,261.530 82.350 M138.208 83.247 C 135.480 85.642,135.146 86.392,135.978 88.252 C 137.720 92.142,142.040 91.777,144.223 87.555 C 145.074 85.910,144.004 83.328,142.151 82.554 C 140.263 81.765,139.803 81.846,138.208 83.247 M201.000 83.814 C 206.562 84.051,207.277 84.173,210.790 85.485 C 212.874 86.264,215.827 87.246,217.351 87.669 C 218.876 88.091,222.030 89.487,224.362 90.771 C 226.693 92.055,230.292 93.953,232.361 94.987 C 235.363 96.489,236.898 97.609,239.965 100.535 C 242.079 102.551,244.887 105.100,246.204 106.200 C 249.565 109.005,250.148 109.707,252.684 114.000 C 255.171 118.208,259.326 124.560,260.404 125.800 C 263.937 129.865,265.387 140.378,265.809 165.000 L 266.063 179.800 264.524 181.787 C 262.375 184.564,260.117 185.819,254.993 187.087 L 250.600 188.175 201.800 188.319 C 137.564 188.508,136.231 188.388,129.950 181.852 L 128.400 180.239 128.410 166.619 C 128.418 154.395,128.518 152.303,129.385 146.200 C 131.792 129.258,140.731 111.903,151.648 102.976 C 153.246 101.669,155.375 99.873,156.377 98.985 C 160.134 95.656,162.336 94.372,169.600 91.277 C 171.690 90.386,175.110 88.864,177.200 87.894 C 182.239 85.556,191.778 83.052,194.200 83.432 C 194.640 83.501,197.700 83.673,201.000 83.814 M141.133 85.728 L 142.004 86.656 141.002 87.598 L 140.000 88.539 138.998 87.598 L 137.996 86.656 138.867 85.728 C 139.347 85.218,139.857 84.800,140.000 84.800 C 140.143 84.800,140.653 85.218,141.133 85.728 M275.266 95.046 C 277.073 96.298,278.579 98.199,279.608 100.526 C 280.940 103.536,282.090 104.459,285.449 105.210 C 289.236 106.058,292.366 108.753,294.428 112.942 C 295.609 115.341,296.979 116.519,300.590 118.238 C 304.485 120.092,306.151 121.597,307.628 124.596 C 309.447 128.290,311.205 130.156,314.207 131.574 C 317.667 133.209,319.865 135.281,321.279 138.242 C 322.772 141.367,325.114 143.726,328.180 145.193 C 331.159 146.619,333.185 148.659,334.739 151.800 C 336.266 154.885,338.347 156.949,341.600 158.605 C 344.798 160.233,346.857 162.314,348.132 165.203 C 349.331 167.921,351.946 170.516,354.823 171.843 C 362.961 175.597,363.672 182.961,356.303 187.186 L 354.200 188.392 327.184 188.396 C 297.393 188.400,298.095 188.452,292.600 185.847 C 290.774 184.982,289.021 183.731,287.561 182.252 L 285.322 179.983 285.063 166.492 C 284.552 139.912,279.346 116.130,272.540 109.281 C 265.501 102.199,265.521 94.213,272.578 94.030 C 273.239 94.013,274.420 94.459,275.266 95.046 M124.500 96.207 C 121.683 98.619,120.098 103.093,121.345 105.112 C 122.434 106.874,129.453 104.476,131.016 101.808 C 133.626 97.355,128.404 92.866,124.500 96.207 M128.541 98.734 C 129.454 99.743,129.161 100.783,127.648 101.901 L 126.505 102.746 125.174 101.373 L 123.843 100.000 125.182 98.618 C 126.613 97.143,127.116 97.160,128.541 98.734 M116.600 105.172 C 111.093 105.486,108.173 107.318,105.839 111.922 C 104.559 114.450,102.598 116.140,99.937 117.011 C 95.128 118.584,92.307 121.051,90.934 124.884 C 90.068 127.300,87.718 129.771,85.652 130.439 C 81.259 131.859,77.200 135.937,77.200 138.930 C 77.200 140.269,74.051 143.074,71.519 143.990 C 68.132 145.216,65.196 148.112,64.208 151.200 C 63.251 154.195,61.310 156.135,58.011 157.396 C 54.113 158.885,51.819 161.381,50.448 165.625 C 49.832 167.531,47.452 169.706,45.000 170.602 C 35.359 174.126,34.558 184.510,43.614 188.574 L 46.078 189.680 72.339 189.499 C 102.999 189.288,103.884 189.172,108.247 184.825 C 111.659 181.424,111.496 182.501,111.735 161.800 C 111.940 144.015,112.316 137.944,113.323 136.176 C 113.585 135.715,114.377 134.474,115.083 133.418 C 115.788 132.362,116.578 130.486,116.837 129.249 C 117.097 128.012,117.751 126.032,118.291 124.848 C 120.107 120.867,121.266 115.419,121.336 110.539 C 121.377 107.695,121.545 106.161,121.800 106.308 C 122.020 106.434,121.857 106.147,121.438 105.669 C 121.019 105.191,120.659 104.833,120.638 104.872 C 120.617 104.912,118.800 105.047,116.600 105.172 M117.438 108.835 C 120.537 111.747,119.514 118.492,114.945 125.282 C 111.353 130.619,110.439 137.026,109.934 160.400 C 109.453 182.685,109.654 181.391,106.237 184.191 C 101.542 188.038,98.209 188.401,67.643 188.396 L 45.800 188.392 43.697 187.186 C 36.328 182.961,37.039 175.597,45.177 171.843 C 48.054 170.516,50.669 167.921,51.868 165.203 C 53.143 162.314,55.202 160.233,58.400 158.605 C 61.653 156.949,63.734 154.885,65.261 151.800 C 66.815 148.659,68.841 146.619,71.820 145.193 C 74.886 143.726,77.228 141.367,78.721 138.242 C 80.101 135.353,82.451 133.087,85.437 131.767 C 88.328 130.488,90.630 128.315,92.030 125.541 C 94.127 121.387,96.841 119.176,101.567 117.773 C 103.982 117.056,105.768 115.624,106.820 113.561 C 109.798 107.723,114.179 105.774,117.438 108.835 M17.288 197.617 C 14.378 198.910,12.880 200.338,11.503 203.137 L 10.200 205.783 10.200 306.592 L 10.200 407.400 11.061 409.241 C 12.316 411.927,14.150 413.818,16.727 415.084 L 19.000 416.200 41.200 416.135 C 65.029 416.064,72.259 415.603,81.600 413.559 C 88.068 412.144,92.168 412.052,150.200 412.014 L 206.600 411.978 208.104 410.839 C 210.106 409.323,212.082 406.791,211.812 406.086 C 211.438 405.113,209.868 403.383,208.161 402.065 L 206.522 400.800 150.122 400.800 C 79.131 400.800,85.829 401.379,81.020 394.827 L 79.600 392.893 79.625 312.746 C 79.652 223.362,79.707 220.990,81.812 218.780 C 84.993 215.439,86.041 215.011,93.269 214.092 C 101.122 213.094,102.809 212.415,105.935 208.995 C 108.302 206.405,108.297 206.361,105.343 203.449 C 102.096 200.247,100.623 199.785,90.600 198.826 C 67.515 196.615,21.260 195.853,17.288 197.617 M327.400 197.068 C 326.300 197.136,321.890 197.455,317.600 197.776 C 313.310 198.098,307.508 198.468,304.708 198.599 C 297.557 198.934,293.692 200.354,289.729 204.102 C 287.180 206.513,287.195 206.379,289.210 208.565 C 291.471 211.017,295.339 212.908,301.989 214.811 C 305.137 215.712,308.903 216.913,310.357 217.481 C 316.331 219.813,315.971 213.677,315.987 313.346 L 316.000 392.893 314.616 394.778 C 313.234 396.661,313.220 396.668,306.143 399.013 C 294.256 402.953,291.943 406.838,298.919 411.150 C 299.906 411.760,301.734 412.117,306.412 412.612 C 309.816 412.972,314.760 413.694,317.400 414.215 C 325.932 415.899,331.028 416.153,356.800 416.177 L 381.000 416.200 383.273 415.084 C 385.850 413.818,387.684 411.927,388.939 409.241 L 389.800 407.400 389.800 306.592 L 389.800 205.783 388.497 203.137 C 387.094 200.287,385.600 198.886,382.585 197.594 C 380.868 196.858,337.487 196.444,327.400 197.068 M75.600 198.949 C 95.364 201.031,99.788 201.778,102.007 203.406 C 105.509 205.975,105.584 206.172,103.771 208.035 C 101.145 210.734,100.308 211.058,93.036 212.190 C 85.463 213.368,84.105 213.977,80.348 217.878 L 78.497 219.800 77.843 227.200 C 77.159 234.946,76.827 376.929,77.465 388.799 L 77.730 393.724 79.569 396.120 C 82.708 400.209,85.657 402.501,88.321 402.924 C 89.575 403.122,116.810 403.366,148.844 403.465 L 207.088 403.646 208.422 405.023 L 209.757 406.400 208.422 407.777 L 207.088 409.154 149.244 409.345 C 90.231 409.541,88.193 409.597,83.000 411.163 C 72.878 414.215,66.313 414.836,41.581 415.082 L 20.161 415.295 18.138 414.270 C 15.192 412.777,13.891 411.537,12.467 408.865 L 11.200 406.488 11.204 306.544 L 11.208 206.600 12.156 204.600 C 13.224 202.347,15.421 200.097,17.800 198.819 C 19.910 197.686,64.564 197.786,75.600 198.949 M382.206 198.839 C 384.561 200.079,386.771 202.338,387.844 204.600 L 388.792 206.600 388.796 306.544 L 388.800 406.488 387.533 408.865 C 386.121 411.515,384.806 412.778,381.956 414.222 L 380.027 415.200 360.798 415.200 C 334.801 415.200,326.444 414.684,318.397 412.583 C 316.309 412.038,311.300 411.081,307.267 410.456 C 299.951 409.323,299.931 409.317,298.474 407.860 L 297.013 406.400 298.407 405.008 C 299.547 403.868,300.575 403.398,304.073 402.417 C 313.388 399.802,313.452 399.767,316.412 395.522 L 318.000 393.244 318.000 312.678 C 318.000 243.062,317.916 231.275,317.384 225.956 L 316.768 219.800 314.952 217.954 C 313.025 215.995,312.214 215.680,301.200 212.613 C 297.171 211.492,294.882 210.358,292.071 208.092 L 290.341 206.698 291.642 205.357 C 292.357 204.619,294.364 203.275,296.102 202.371 L 299.262 200.727 307.131 200.180 C 311.459 199.879,316.530 199.430,318.400 199.182 C 329.445 197.716,379.562 197.447,382.206 198.839 M145.449 199.413 C 138.498 200.253,136.246 201.138,132.624 204.447 L 130.296 206.575 132.270 208.390 C 138.800 214.395,138.808 214.396,199.456 214.398 C 251.536 214.400,249.162 214.503,257.400 211.892 C 260.835 210.803,264.742 207.387,264.044 206.083 C 262.413 203.035,257.955 200.857,250.426 199.429 C 245.910 198.572,152.520 198.558,145.449 199.413 M249.425 201.215 C 257.480 203.283,262.434 205.922,260.888 207.320 C 259.751 208.350,255.356 210.213,251.200 211.427 L 247.400 212.538 201.200 212.706 C 167.791 212.827,154.003 212.746,151.400 212.413 C 140.897 211.069,138.313 210.313,135.201 207.675 L 133.802 206.489 134.801 205.645 C 138.066 202.886,140.880 202.024,151.000 200.679 C 156.372 199.966,246.469 200.456,249.425 201.215 " stroke="none" fill="#2c2c2c" fill-rule="evenodd"></path><path id="path2" d="M190.800 25.832 C 188.123 27.353,186.594 29.012,185.385 31.705 C 184.061 34.656,181.594 37.199,178.742 38.555 C 175.313 40.185,173.856 41.660,171.856 45.534 C 169.799 49.517,168.272 51.226,165.515 52.635 C 161.490 54.692,159.306 57.687,158.420 62.364 C 157.772 65.785,157.086 66.705,154.219 67.994 C 147.927 70.825,147.005 75.185,152.132 77.862 C 154.138 78.910,158.864 76.686,162.212 73.118 L 163.823 71.400 172.412 69.501 C 194.970 64.514,226.795 66.999,234.970 74.386 C 241.475 80.262,249.883 82.426,252.288 78.841 C 254.914 74.927,252.388 69.644,246.443 66.617 C 243.945 65.346,242.936 64.164,241.963 61.367 C 240.321 56.650,238.278 54.165,234.442 52.221 C 231.379 50.669,230.263 49.485,228.195 45.591 C 226.089 41.625,224.652 40.168,221.258 38.555 C 218.391 37.192,215.938 34.653,214.593 31.655 C 213.406 29.012,211.433 26.943,208.834 25.617 C 206.146 24.246,193.323 24.399,190.800 25.832 M207.720 26.250 C 210.180 27.498,212.262 29.551,213.582 32.027 C 215.439 35.511,217.192 37.303,220.891 39.501 C 224.322 41.539,225.898 43.210,227.478 46.484 C 228.993 49.626,230.258 51.058,232.947 52.674 C 238.110 55.777,240.072 58.117,240.594 61.795 C 241.105 65.391,242.499 67.077,245.864 68.170 C 248.033 68.875,251.600 72.124,251.600 73.396 C 251.600 75.580,248.822 78.800,246.937 78.800 C 245.018 78.800,238.902 75.348,236.331 72.814 C 235.305 71.803,225.538 68.281,220.800 67.214 C 207.854 64.299,187.164 64.428,173.800 67.509 C 162.617 70.086,160.765 69.431,160.134 62.676 C 159.794 59.029,162.235 55.529,166.714 53.244 C 169.054 52.050,170.710 50.206,172.209 47.125 C 174.140 43.157,175.519 41.633,179.109 39.501 C 182.808 37.303,184.561 35.511,186.418 32.027 C 187.712 29.598,189.757 27.561,192.200 26.268 C 193.969 25.330,205.882 25.317,207.720 26.250 M157.235 71.018 C 159.620 72.252,159.097 73.593,155.513 75.432 C 153.137 76.651,153.111 76.650,151.631 75.169 C 148.629 72.168,153.082 68.870,157.235 71.018 M256.606 81.752 C 252.420 82.987,253.543 88.705,258.495 91.372 C 262.761 93.669,267.014 88.605,264.007 84.809 C 261.513 81.660,259.599 80.869,256.606 81.752 M190.569 83.815 C 185.616 84.705,181.112 86.079,177.200 87.894 C 175.110 88.864,171.690 90.386,169.600 91.277 C 162.336 94.372,160.134 95.656,156.377 98.985 C 155.375 99.873,153.246 101.669,151.648 102.976 C 140.731 111.903,131.792 129.258,129.385 146.200 C 128.518 152.303,128.418 154.395,128.410 166.619 L 128.400 180.239 129.950 181.852 C 136.231 188.388,137.564 188.508,201.800 188.319 L 250.600 188.175 254.993 187.087 C 260.117 185.819,262.375 184.564,264.524 181.787 L 266.063 179.800 265.809 165.000 C 265.387 140.378,263.937 129.865,260.404 125.800 C 259.326 124.560,255.171 118.208,252.684 114.000 C 250.148 109.707,249.565 109.005,246.204 106.200 C 244.887 105.100,242.079 102.551,239.965 100.535 C 236.898 97.609,235.363 96.489,232.361 94.987 C 230.292 93.953,226.693 92.055,224.362 90.771 C 222.030 89.487,218.876 88.091,217.351 87.669 C 215.827 87.246,212.874 86.264,210.790 85.485 C 207.277 84.173,206.562 84.051,201.000 83.814 C 197.700 83.673,194.640 83.501,194.200 83.432 C 193.760 83.363,192.126 83.535,190.569 83.815 M261.857 84.856 C 263.526 86.494,263.537 86.524,262.873 87.556 C 261.047 90.391,259.926 90.562,257.688 88.347 L 256.018 86.693 256.709 85.494 C 257.267 84.527,259.036 83.296,259.985 83.216 C 260.087 83.207,260.929 83.945,261.857 84.856 M138.867 85.728 L 137.996 86.656 138.998 87.598 L 140.000 88.539 141.002 87.598 L 142.004 86.656 141.133 85.728 C 140.653 85.218,140.143 84.800,140.000 84.800 C 139.857 84.800,139.347 85.218,138.867 85.728 M201.800 86.623 C 213.586 87.270,230.203 94.140,238.360 101.739 C 240.472 103.707,243.565 106.464,245.233 107.866 C 247.197 109.517,248.860 111.364,249.950 113.108 C 250.877 114.589,253.010 117.960,254.692 120.600 C 262.666 133.118,263.587 137.410,263.878 163.400 L 264.066 180.200 262.133 182.071 C 260.060 184.077,258.043 184.928,251.600 186.514 C 246.206 187.842,158.055 188.079,147.014 186.795 C 138.921 185.854,135.040 184.464,131.900 181.381 L 130.400 179.909 130.402 167.054 C 130.406 142.376,133.251 130.680,142.645 116.721 C 150.707 104.741,159.040 97.939,173.200 91.777 C 180.423 88.633,191.102 85.940,195.200 86.228 C 196.410 86.313,199.380 86.491,201.800 86.623 M270.000 94.556 C 265.472 96.158,266.727 103.432,272.540 109.281 C 279.346 116.130,284.552 139.912,285.063 166.492 L 285.322 179.983 287.561 182.252 C 289.021 183.731,290.774 184.982,292.600 185.847 C 298.095 188.452,297.393 188.400,327.184 188.396 L 354.200 188.392 356.303 187.186 C 363.672 182.961,362.961 175.597,354.823 171.843 C 351.946 170.516,349.331 167.921,348.132 165.203 C 346.857 162.314,344.798 160.233,341.600 158.605 C 338.347 156.949,336.266 154.885,334.739 151.800 C 333.185 148.659,331.159 146.619,328.180 145.193 C 325.114 143.726,322.772 141.367,321.279 138.242 C 319.865 135.281,317.667 133.209,314.207 131.574 C 311.205 130.156,309.447 128.290,307.628 124.596 C 306.151 121.597,304.485 120.092,300.590 118.238 C 296.979 116.519,295.609 115.341,294.428 112.942 C 292.366 108.753,289.236 106.058,285.449 105.210 C 282.090 104.459,280.940 103.536,279.608 100.526 C 277.324 95.362,273.840 93.198,270.000 94.556 M275.754 97.553 C 277.257 99.079,277.710 99.845,277.824 101.053 C 278.310 106.187,278.304 106.181,283.365 106.553 C 288.293 106.915,290.954 108.774,293.370 113.541 C 294.266 115.308,297.250 118.400,298.061 118.400 C 300.433 118.400,304.960 122.165,307.201 126.001 C 309.004 129.089,311.122 131.142,314.021 132.610 C 316.727 133.982,319.170 136.481,320.809 139.556 C 322.260 142.278,324.875 144.848,327.412 146.045 C 330.117 147.321,331.938 149.130,333.845 152.436 C 335.853 155.917,337.812 157.820,341.314 159.691 C 344.025 161.138,345.350 162.547,347.558 166.328 C 349.378 169.444,351.121 171.141,354.000 172.600 C 358.707 174.985,361.345 178.662,360.188 181.226 C 359.390 182.996,356.422 185.954,354.391 187.005 C 352.506 187.979,300.993 187.676,297.936 186.672 C 294.796 185.641,291.782 183.996,289.706 182.181 L 287.727 180.449 287.485 166.524 C 287.222 151.423,286.773 147.410,284.027 135.600 C 283.388 132.850,282.513 129.070,282.082 127.200 C 281.652 125.330,280.377 121.339,279.250 118.332 C 278.122 115.324,277.200 112.336,277.200 111.691 C 277.200 109.080,275.786 107.200,273.823 107.200 C 272.390 107.200,268.534 101.041,268.972 99.452 C 269.405 97.878,271.908 95.600,273.204 95.600 C 273.548 95.600,274.696 96.479,275.754 97.553 M125.182 98.618 L 123.843 100.000 125.174 101.373 L 126.505 102.746 127.648 101.901 C 129.161 100.783,129.454 99.743,128.541 98.734 C 127.116 97.160,126.613 97.143,125.182 98.618 M111.724 107.958 C 109.771 109.374,107.817 111.606,106.820 113.561 C 105.768 115.624,103.982 117.056,101.567 117.773 C 96.841 119.176,94.127 121.387,92.030 125.541 C 90.630 128.315,88.328 130.488,85.437 131.767 C 82.451 133.087,80.101 135.353,78.721 138.242 C 77.228 141.367,74.886 143.726,71.820 145.193 C 68.841 146.619,66.815 148.659,65.261 151.800 C 63.734 154.885,61.653 156.949,58.400 158.605 C 55.202 160.233,53.143 162.314,51.868 165.203 C 50.669 167.921,48.054 170.516,45.177 171.843 C 37.039 175.597,36.328 182.961,43.697 187.186 L 45.800 188.392 67.643 188.396 C 98.209 188.401,101.542 188.038,106.237 184.191 C 109.654 181.391,109.453 182.685,109.934 160.400 C 110.439 137.026,111.353 130.619,114.945 125.282 C 116.593 122.832,118.545 118.189,119.222 115.104 C 120.346 109.981,115.415 105.281,111.724 107.958 M115.463 109.821 C 118.749 112.328,118.097 117.078,113.607 123.330 C 109.723 128.739,108.012 143.606,108.003 172.034 L 108.000 180.268 106.133 182.162 C 101.394 186.968,96.773 187.600,66.344 187.600 L 46.557 187.600 44.778 186.467 C 37.634 181.916,38.103 176.602,46.000 172.600 C 48.879 171.141,50.622 169.444,52.442 166.328 C 54.650 162.547,55.975 161.138,58.686 159.691 C 62.188 157.820,64.147 155.917,66.155 152.436 C 68.062 149.130,69.883 147.321,72.588 146.045 C 75.125 144.848,77.740 142.278,79.191 139.556 C 80.888 136.372,83.296 133.967,86.308 132.447 C 89.628 130.771,90.970 129.527,92.821 126.411 C 95.625 121.692,98.306 119.578,102.200 119.017 C 105.745 118.506,108.400 116.285,108.400 113.831 C 108.400 112.924,112.486 108.800,113.385 108.800 C 113.792 108.800,114.727 109.259,115.463 109.821 M17.800 198.819 C 15.421 200.097,13.224 202.347,12.156 204.600 L 11.208 206.600 11.204 306.544 L 11.200 406.488 12.467 408.865 C 13.891 411.537,15.192 412.777,18.138 414.270 L 20.161 415.295 41.581 415.082 C 66.313 414.836,72.878 414.215,83.000 411.163 C 88.193 409.597,90.231 409.541,149.244 409.345 L 207.088 409.154 208.422 407.777 L 209.757 406.400 208.422 405.023 L 207.088 403.646 148.844 403.465 C 116.810 403.366,89.575 403.122,88.321 402.924 C 85.657 402.501,82.708 400.209,79.569 396.120 L 77.730 393.724 77.465 388.799 C 76.827 376.929,77.159 234.946,77.843 227.200 L 78.497 219.800 80.348 217.878 C 84.105 213.977,85.463 213.368,93.036 212.190 C 100.308 211.058,101.145 210.734,103.771 208.035 C 105.584 206.172,105.509 205.975,102.007 203.406 C 99.788 201.778,95.364 201.031,75.600 198.949 C 64.564 197.786,19.910 197.686,17.800 198.819 M326.200 198.424 C 323.780 198.593,320.270 198.934,318.400 199.182 C 316.530 199.430,311.459 199.879,307.131 200.180 L 299.262 200.727 296.102 202.371 C 294.364 203.275,292.357 204.619,291.642 205.357 L 290.341 206.698 292.071 208.092 C 294.882 210.358,297.171 211.492,301.200 212.613 C 312.214 215.680,313.025 215.995,314.952 217.954 L 316.768 219.800 317.384 225.956 C 317.916 231.275,318.000 243.062,318.000 312.678 L 318.000 393.244 316.412 395.522 C 313.452 399.767,313.388 399.802,304.073 402.417 C 300.575 403.398,299.547 403.868,298.407 405.008 L 297.013 406.400 298.474 407.860 C 299.931 409.317,299.951 409.323,307.267 410.456 C 311.300 411.081,316.309 412.038,318.397 412.583 C 326.444 414.684,334.801 415.200,360.798 415.200 L 380.027 415.200 381.956 414.222 C 384.806 412.778,386.121 411.515,387.533 408.865 L 388.800 406.488 388.796 306.544 L 388.792 206.600 387.844 204.600 C 386.771 202.338,384.561 200.079,382.206 198.839 C 380.510 197.947,337.622 197.629,326.200 198.424 M65.200 199.387 C 74.345 200.140,78.330 200.591,86.800 201.834 C 98.772 203.591,100.220 203.951,101.745 205.543 L 102.852 206.699 101.392 207.903 C 100.588 208.565,99.362 209.204,98.666 209.322 C 85.434 211.577,83.737 212.226,79.142 216.792 L 76.484 219.433 76.214 222.617 C 76.065 224.368,75.776 227.235,75.572 228.990 C 75.355 230.853,75.200 265.636,75.200 312.627 L 75.200 393.076 76.790 395.536 C 78.906 398.810,81.271 401.325,84.198 403.414 C 87.448 405.733,83.997 405.606,150.100 405.836 C 185.848 405.960,206.800 406.175,206.800 406.417 C 206.800 406.659,187.584 406.798,154.500 406.794 C 101.877 406.788,88.412 407.066,85.800 408.213 C 75.514 412.732,65.407 414.000,39.681 414.000 L 19.757 414.000 17.978 412.854 C 15.941 411.541,14.447 410.009,13.242 408.000 L 12.403 406.600 12.401 306.471 L 12.400 206.342 13.387 204.659 C 14.615 202.562,16.079 201.153,18.400 199.833 L 20.200 198.810 39.200 198.810 C 52.231 198.811,60.399 198.992,65.200 199.387 M381.205 199.602 C 383.427 200.736,385.375 202.545,386.572 204.588 L 387.600 206.342 387.599 306.471 L 387.597 406.600 386.758 408.000 C 385.553 410.009,384.059 411.541,382.022 412.854 L 380.243 414.000 359.602 414.000 C 333.046 414.000,326.890 413.567,318.928 411.140 C 312.774 409.263,311.352 408.923,305.743 407.982 C 298.830 406.822,297.836 406.092,302.192 405.374 C 311.290 403.876,314.159 402.260,318.033 396.449 L 320.000 393.497 319.995 312.049 C 319.990 214.227,320.281 220.774,315.729 216.323 C 313.284 213.933,310.464 212.859,302.200 211.169 C 299.695 210.657,296.199 209.015,294.276 207.448 L 293.152 206.532 294.561 205.457 C 297.986 202.845,299.573 202.373,306.922 201.785 C 310.705 201.483,316.421 200.865,319.623 200.413 C 332.024 198.662,378.170 198.054,381.205 199.602 M151.000 200.679 C 140.880 202.024,138.066 202.886,134.801 205.645 L 133.802 206.489 135.201 207.675 C 138.313 210.313,140.897 211.069,151.400 212.413 C 154.003 212.746,167.791 212.827,201.200 212.706 L 247.400 212.538 251.200 211.427 C 255.356 210.213,259.751 208.350,260.888 207.320 C 262.434 205.922,257.480 203.283,249.425 201.215 C 246.469 200.456,156.372 199.966,151.000 200.679 M250.800 203.440 C 252.670 204.119,255.082 205.124,256.160 205.675 L 258.120 206.675 255.047 207.955 C 247.532 211.083,252.745 210.832,197.922 210.706 L 149.000 210.594 144.800 209.661 C 141.260 208.875,137.200 207.234,137.200 206.589 C 137.200 205.409,141.205 204.169,150.600 202.439 C 151.759 202.226,172.521 202.100,200.000 202.139 L 247.400 202.207 250.800 203.440 " stroke="none" fill="#3c3c3c" fill-rule="evenodd"></path><path id="path3" d="M192.200 26.268 C 189.757 27.561,187.712 29.598,186.418 32.027 C 184.561 35.511,182.808 37.303,179.109 39.501 C 175.519 41.633,174.140 43.157,172.209 47.125 C 170.710 50.206,169.054 52.050,166.714 53.244 C 162.235 55.529,159.794 59.029,160.134 62.676 C 160.765 69.431,162.617 70.086,173.800 67.509 C 187.164 64.428,207.854 64.299,220.800 67.214 C 225.538 68.281,235.305 71.803,236.331 72.814 C 241.043 77.459,246.889 79.683,249.224 77.719 C 252.947 74.586,251.312 69.939,245.864 68.170 C 242.499 67.077,241.105 65.391,240.594 61.795 C 240.072 58.117,238.110 55.777,232.947 52.674 C 230.258 51.058,228.993 49.626,227.478 46.484 C 225.898 43.210,224.322 41.539,220.891 39.501 C 217.192 37.303,215.439 35.511,213.582 32.027 C 212.262 29.551,210.180 27.498,207.720 26.250 C 205.882 25.317,193.969 25.330,192.200 26.268 M208.362 28.690 C 210.309 30.166,210.893 30.887,213.101 34.539 C 215.028 37.726,217.002 39.546,220.103 40.993 C 222.306 42.021,225.403 45.600,226.221 48.064 C 227.105 50.724,229.457 53.268,232.074 54.394 C 235.676 55.943,238.558 59.239,238.254 61.461 C 237.366 67.935,235.712 68.652,227.277 66.222 C 210.402 61.359,190.488 60.826,173.257 64.775 C 165.305 66.598,163.887 66.057,162.241 60.575 C 161.901 59.442,165.044 56.196,167.526 55.118 C 171.313 53.472,172.914 51.634,173.968 47.720 C 174.519 45.673,177.770 41.985,179.897 40.993 C 182.998 39.546,184.972 37.726,186.899 34.539 C 189.072 30.944,189.660 30.214,191.600 28.701 L 193.000 27.609 199.962 27.604 L 206.924 27.600 208.362 28.690 M151.894 71.440 C 150.083 73.251,150.058 73.597,151.631 75.169 C 153.111 76.650,153.137 76.651,155.513 75.432 C 159.097 73.593,159.620 72.252,157.235 71.018 C 154.743 69.729,153.507 69.827,151.894 71.440 M247.956 72.155 L 249.269 73.510 248.056 74.855 L 246.842 76.200 244.586 75.000 C 241.735 73.484,241.618 73.270,243.021 72.150 C 244.042 71.337,244.769 71.042,246.222 70.854 C 246.453 70.825,247.234 71.410,247.956 72.155 M258.600 83.763 C 257.940 84.056,257.089 84.835,256.709 85.494 L 256.018 86.693 257.688 88.347 C 259.926 90.562,261.047 90.391,262.873 87.556 C 263.483 86.609,261.159 83.116,259.985 83.216 C 259.883 83.224,259.260 83.471,258.600 83.763 M186.200 87.576 C 180.588 88.816,178.317 89.550,173.200 91.777 C 163.871 95.836,162.194 96.834,156.153 101.920 C 136.951 118.088,130.407 134.640,130.402 167.054 L 130.400 179.909 131.900 181.381 C 135.040 184.464,138.921 185.854,147.014 186.795 C 158.055 188.079,246.206 187.842,251.600 186.514 C 258.043 184.928,260.060 184.077,262.133 182.071 L 264.066 180.200 263.878 163.400 C 263.587 137.410,262.666 133.118,254.692 120.600 C 253.010 117.960,250.877 114.589,249.950 113.108 C 248.860 111.364,247.197 109.517,245.233 107.866 C 243.565 106.464,240.472 103.707,238.360 101.739 C 230.203 94.140,213.586 87.270,201.800 86.623 C 199.380 86.491,196.410 86.313,195.200 86.228 C 193.660 86.120,190.959 86.524,186.200 87.576 M202.800 90.603 C 214.547 91.281,229.071 97.263,236.790 104.603 C 239.106 106.804,242.296 109.652,243.879 110.931 C 246.170 112.781,247.103 113.886,248.440 116.328 C 249.364 118.018,251.146 121.020,252.399 123.000 C 253.653 124.980,255.093 127.860,255.600 129.400 C 256.106 130.940,257.201 133.870,258.031 135.912 C 260.523 142.036,261.197 148.654,261.199 167.030 C 261.200 179.832,261.198 179.862,260.300 180.662 C 259.007 181.814,254.973 183.433,250.504 184.595 L 246.636 185.600 199.304 185.600 C 142.679 185.600,141.261 185.497,135.317 180.964 L 134.000 179.959 134.000 167.180 C 134.000 144.928,136.554 131.650,142.400 123.510 C 143.707 121.689,145.727 118.596,146.888 116.636 C 149.596 112.065,151.513 109.956,156.532 106.026 C 158.769 104.274,161.500 102.018,162.600 101.013 C 164.858 98.950,166.206 98.249,174.400 94.883 C 178.857 93.052,181.357 92.290,185.200 91.593 C 187.950 91.094,190.830 90.552,191.600 90.388 C 192.952 90.101,194.674 90.135,202.800 90.603 M271.589 96.288 C 270.253 97.217,269.255 98.423,268.972 99.452 C 268.534 101.041,272.390 107.200,273.823 107.200 C 275.786 107.200,277.200 109.080,277.200 111.691 C 277.200 112.336,278.122 115.324,279.250 118.332 C 280.377 121.339,281.652 125.330,282.082 127.200 C 282.513 129.070,283.388 132.850,284.027 135.600 C 286.773 147.410,287.222 151.423,287.485 166.524 L 287.727 180.449 289.706 182.181 C 291.782 183.996,294.796 185.641,297.936 186.672 C 300.993 187.676,352.506 187.979,354.391 187.005 C 356.422 185.954,359.390 182.996,360.188 181.226 C 361.345 178.662,358.707 174.985,354.000 172.600 C 351.121 171.141,349.378 169.444,347.558 166.328 C 345.350 162.547,344.025 161.138,341.314 159.691 C 337.812 157.820,335.853 155.917,333.845 152.436 C 331.938 149.130,330.117 147.321,327.412 146.045 C 324.875 144.848,322.260 142.278,320.809 139.556 C 319.170 136.481,316.727 133.982,314.021 132.610 C 311.122 131.142,309.004 129.089,307.201 126.001 C 304.960 122.165,300.433 118.400,298.061 118.400 C 297.250 118.400,294.266 115.308,293.370 113.541 C 290.954 108.774,288.293 106.915,283.365 106.553 C 278.304 106.181,278.310 106.187,277.824 101.053 C 277.527 97.906,273.590 94.897,271.589 96.288 M274.069 99.062 C 274.988 99.894,274.984 100.738,274.053 101.948 L 273.324 102.896 272.418 101.429 C 271.548 100.021,271.540 99.930,272.217 99.181 C 273.075 98.233,273.148 98.229,274.069 99.062 M110.523 110.992 C 109.355 112.197,108.400 113.475,108.400 113.831 C 108.400 116.285,105.745 118.506,102.200 119.017 C 98.306 119.578,95.625 121.692,92.821 126.411 C 90.970 129.527,89.628 130.771,86.308 132.447 C 83.296 133.967,80.888 136.372,79.191 139.556 C 77.740 142.278,75.125 144.848,72.588 146.045 C 69.883 147.321,68.062 149.130,66.155 152.436 C 64.147 155.917,62.188 157.820,58.686 159.691 C 55.975 161.138,54.650 162.547,52.442 166.328 C 50.622 169.444,48.879 171.141,46.000 172.600 C 38.103 176.602,37.634 181.916,44.778 186.467 L 46.557 187.600 66.344 187.600 C 96.773 187.600,101.394 186.968,106.133 182.162 L 108.000 180.268 108.003 172.034 C 108.012 143.606,109.723 128.739,113.607 123.330 C 116.532 119.258,118.355 113.846,117.414 112.027 C 115.578 108.476,113.292 108.133,110.523 110.992 M288.797 110.636 C 290.164 111.914,290.961 113.079,291.424 114.472 C 292.577 117.943,294.680 119.682,299.063 120.790 C 301.416 121.385,304.304 124.141,306.201 127.602 C 307.958 130.808,309.353 132.141,312.731 133.845 C 315.622 135.303,317.855 137.549,319.493 140.642 C 320.998 143.487,323.484 145.922,326.378 147.389 C 328.900 148.667,331.353 151.140,332.662 153.722 C 334.078 156.517,336.424 158.888,339.277 160.409 C 342.243 161.990,344.779 164.493,345.960 167.004 C 347.117 169.465,350.430 172.686,353.568 174.400 C 359.448 177.612,360.075 180.119,355.911 183.770 L 353.800 185.621 326.600 185.511 L 299.400 185.400 296.785 184.111 C 295.347 183.403,293.412 182.174,292.485 181.380 L 290.800 179.938 290.781 173.269 C 290.726 154.545,289.664 142.118,287.624 136.325 C 286.980 134.496,286.068 131.470,285.598 129.600 C 285.128 127.730,283.736 123.214,282.504 119.565 L 280.264 112.931 281.032 111.899 C 282.092 110.475,284.671 109.035,286.517 108.834 C 286.692 108.815,287.717 109.626,288.797 110.636 M115.200 113.459 C 115.200 114.201,113.501 117.600,113.131 117.600 C 112.724 117.600,111.644 115.495,111.447 114.321 C 111.348 113.730,111.661 113.006,112.321 112.300 L 113.349 111.201 114.275 112.070 C 114.784 112.548,115.200 113.173,115.200 113.459 M104.800 122.072 C 108.801 123.298,109.087 124.515,107.433 133.290 C 105.948 141.167,105.200 154.422,105.200 172.862 L 105.200 180.402 102.822 182.152 C 100.255 184.042,100.123 184.080,93.080 184.990 C 89.372 185.469,83.836 185.600,67.273 185.600 L 46.186 185.600 44.083 183.760 C 39.925 180.123,40.556 177.610,46.432 174.400 C 49.570 172.686,52.883 169.465,54.040 167.004 C 55.221 164.493,57.757 161.990,60.723 160.409 C 63.576 158.888,65.922 156.517,67.338 153.722 C 68.647 151.140,71.100 148.667,73.622 147.389 C 76.516 145.922,79.002 143.487,80.507 140.642 C 82.219 137.409,84.430 135.262,87.605 133.749 C 91.190 132.041,92.368 130.942,94.204 127.593 C 97.391 121.779,99.781 120.534,104.800 122.072 M18.400 199.833 C 16.079 201.153,14.615 202.562,13.387 204.659 L 12.400 206.342 12.401 306.471 L 12.403 406.600 13.242 408.000 C 14.447 410.009,15.941 411.541,17.978 412.854 L 19.757 414.000 39.681 414.000 C 65.407 414.000,75.514 412.732,85.800 408.213 C 88.412 407.066,101.877 406.788,154.500 406.794 C 187.584 406.798,206.800 406.659,206.800 406.417 C 206.800 406.175,185.848 405.960,150.100 405.836 C 83.997 405.606,87.448 405.733,84.198 403.414 C 81.271 401.325,78.906 398.810,76.790 395.536 L 75.200 393.076 75.200 312.627 C 75.200 265.636,75.355 230.853,75.572 228.990 C 75.776 227.235,76.065 224.368,76.214 222.617 L 76.484 219.433 79.142 216.792 C 83.737 212.226,85.434 211.577,98.666 209.322 C 99.362 209.204,100.588 208.565,101.392 207.903 L 102.852 206.699 101.745 205.543 C 100.220 203.951,98.772 203.591,86.800 201.834 C 69.677 199.322,61.639 198.811,39.200 198.810 L 20.200 198.810 18.400 199.833 M332.223 199.255 C 328.496 199.440,322.826 199.961,319.623 200.413 C 316.421 200.865,310.705 201.483,306.922 201.785 C 299.573 202.373,297.986 202.845,294.561 205.457 L 293.152 206.532 294.276 207.448 C 296.199 209.015,299.695 210.657,302.200 211.169 C 310.464 212.859,313.284 213.933,315.729 216.323 C 320.281 220.774,319.990 214.227,319.995 312.049 L 320.000 393.497 318.033 396.449 C 314.159 402.260,311.290 403.876,302.192 405.374 C 297.836 406.092,298.830 406.822,305.743 407.982 C 311.352 408.923,312.774 409.263,318.928 411.140 C 326.890 413.567,333.046 414.000,359.602 414.000 L 380.243 414.000 382.022 412.854 C 384.059 411.541,385.553 410.009,386.758 408.000 L 387.597 406.600 387.599 306.471 L 387.600 206.342 386.572 204.588 C 385.375 202.545,383.427 200.736,381.205 199.602 C 379.469 198.717,347.647 198.491,332.223 199.255 M68.077 201.607 C 77.332 202.686,95.593 205.859,96.233 206.500 C 96.306 206.573,94.078 207.122,91.283 207.721 C 82.820 209.535,77.145 212.956,74.136 218.057 C 71.147 223.125,71.129 223.719,71.273 313.861 L 71.400 393.000 73.127 396.098 C 75.340 400.069,77.495 402.782,80.019 404.777 L 82.028 406.365 80.914 406.928 C 78.223 408.288,71.585 410.092,65.000 411.252 C 61.195 411.922,57.868 412.060,40.400 412.272 L 20.200 412.516 18.412 411.147 C 17.428 410.393,16.033 409.003,15.312 408.057 L 14.000 406.338 14.000 306.522 L 14.000 206.707 15.447 204.736 C 16.243 203.652,17.544 202.323,18.340 201.783 L 19.786 200.800 40.469 200.800 C 58.660 200.800,61.988 200.897,68.077 201.607 M381.660 201.783 C 382.456 202.323,383.757 203.652,384.553 204.736 L 386.000 206.707 386.000 306.522 L 386.000 406.338 384.688 408.057 C 383.967 409.003,382.603 410.367,381.657 411.088 L 379.938 412.400 360.469 412.392 C 332.418 412.381,319.004 410.680,314.436 406.554 C 314.346 406.472,315.272 405.358,316.494 404.077 C 318.828 401.630,320.785 398.796,322.545 395.313 L 323.600 393.227 323.600 312.770 C 323.600 213.927,323.934 220.142,318.322 214.455 C 314.634 210.719,313.240 210.139,304.200 208.580 C 302.000 208.201,299.669 207.622,299.020 207.294 L 297.840 206.697 298.707 205.995 C 299.547 205.315,300.596 205.144,310.800 204.026 C 312.670 203.821,316.720 203.193,319.800 202.629 C 328.059 201.119,332.308 200.918,357.407 200.856 L 380.214 200.800 381.660 201.783 M150.600 202.439 C 141.205 204.169,137.200 205.409,137.200 206.589 C 137.200 207.234,141.260 208.875,144.800 209.661 L 149.000 210.594 197.922 210.706 C 252.745 210.832,247.532 211.083,255.047 207.955 L 258.120 206.675 256.160 205.675 C 255.082 205.124,252.670 204.119,250.800 203.440 L 247.400 202.207 200.000 202.139 C 172.521 202.100,151.759 202.226,150.600 202.439 M248.800 205.831 L 250.600 206.661 248.400 207.426 C 244.983 208.615,154.547 208.624,149.097 207.437 C 147.170 207.017,145.659 206.608,145.738 206.528 C 147.712 204.555,244.613 203.899,248.800 205.831 " stroke="none" fill="#444444" fill-rule="evenodd"></path><path id="path4" d="M180.000 3.400 L 180.000 6.800 173.880 6.800 C 166.250 6.800,166.800 6.250,166.800 13.880 L 166.800 20.000 160.974 20.000 C 153.187 20.000,153.746 19.488,153.396 26.943 L 153.108 33.104 147.105 33.274 C 139.543 33.489,140.000 33.000,140.000 40.876 L 140.000 46.800 133.880 46.800 C 126.250 46.800,126.800 46.250,126.800 53.880 L 126.800 60.000 120.876 60.000 C 113.196 60.000,113.715 59.512,113.370 67.052 L 113.093 73.104 107.098 73.274 C 99.544 73.489,100.000 73.001,100.000 80.876 L 100.000 86.800 93.880 86.800 C 86.250 86.800,86.800 86.250,86.800 93.880 L 86.800 100.000 80.876 100.000 C 73.195 100.000,73.716 99.510,73.369 107.064 L 73.092 113.129 67.113 113.264 C 59.554 113.436,60.000 112.959,60.000 120.876 L 60.000 126.800 53.880 126.800 C 46.250 126.800,46.800 126.250,46.800 133.880 L 46.800 140.000 40.649 140.000 C 33.176 140.000,33.742 139.451,33.380 147.059 L 33.092 153.117 26.979 153.259 C 19.584 153.430,20.227 152.786,20.073 160.178 L 19.945 166.291 13.873 166.580 C 6.249 166.942,6.800 166.376,6.800 173.849 L 6.800 180.000 3.400 180.000 L 0.000 180.000 0.000 303.200 L 0.000 426.400 200.000 426.400 L 400.000 426.400 400.000 303.200 L 400.000 180.000 396.600 180.000 L 393.200 180.000 393.200 173.849 C 393.200 166.376,393.751 166.942,386.127 166.580 L 380.055 166.291 379.927 160.178 C 379.773 152.785,380.417 153.430,373.016 153.258 L 366.898 153.117 366.610 147.058 C 366.247 139.445,366.817 140.000,359.351 140.000 L 353.200 140.000 353.200 133.880 C 353.200 126.250,353.750 126.800,346.120 126.800 L 340.000 126.800 340.000 120.876 C 340.000 112.958,340.447 113.436,332.880 113.264 L 326.894 113.129 326.604 106.956 C 326.254 99.487,326.814 100.000,319.026 100.000 L 313.200 100.000 313.200 93.880 C 313.200 86.250,313.750 86.800,306.120 86.800 L 300.000 86.800 300.000 80.876 C 300.000 73.000,300.457 73.489,292.895 73.274 L 286.892 73.104 286.604 66.943 C 286.254 59.488,286.813 60.000,279.026 60.000 L 273.200 60.000 273.200 53.880 C 273.200 46.252,273.745 46.800,266.148 46.800 L 260.056 46.800 259.928 40.619 C 259.769 32.943,260.291 33.484,252.847 33.273 L 246.892 33.104 246.603 26.925 C 246.254 19.492,246.828 20.000,238.774 20.000 L 233.200 20.000 233.200 13.880 C 233.200 6.250,233.750 6.800,226.120 6.800 L 220.000 6.800 220.000 3.400 L 220.000 0.000 200.000 0.000 L 180.000 0.000 180.000 3.400 M210.151 24.796 C 212.679 26.087,214.810 28.539,215.754 31.243 C 216.475 33.307,219.259 36.800,220.183 36.800 C 223.158 36.803,227.809 41.036,229.394 45.185 C 230.570 48.261,232.200 50.028,234.800 51.043 C 239.017 52.690,240.708 54.498,242.756 59.549 C 244.168 63.029,245.105 64.131,247.800 65.480 C 251.553 67.359,254.142 70.472,255.191 74.366 C 255.912 77.046,256.644 77.868,259.508 79.221 C 264.161 81.420,266.264 83.649,267.450 87.642 C 268.149 89.997,269.225 91.082,271.383 91.607 C 275.576 92.626,278.673 94.985,280.563 98.600 C 282.346 102.009,283.994 103.432,287.000 104.158 C 290.326 104.960,294.763 109.099,295.398 111.992 C 295.808 113.856,298.490 116.116,301.994 117.549 C 306.081 119.219,309.600 123.213,309.600 126.178 C 309.600 126.826,313.390 130.399,314.083 130.404 C 317.126 130.427,322.800 135.976,322.800 138.930 C 322.800 140.269,325.949 143.074,328.481 143.990 C 331.868 145.216,334.804 148.112,335.792 151.200 C 336.749 154.195,338.690 156.135,341.989 157.396 C 345.887 158.885,348.181 161.381,349.552 165.625 C 350.168 167.531,352.548 169.706,355.000 170.602 C 364.608 174.113,365.443 184.510,356.441 188.549 L 354.032 189.630 325.716 189.512 L 297.400 189.393 294.600 188.452 C 290.845 187.189,289.023 186.223,286.401 184.105 C 282.245 180.747,282.557 182.043,282.249 166.851 C 281.719 140.727,279.789 128.508,273.897 113.975 C 273.668 113.411,272.783 112.548,271.930 112.057 C 269.065 110.408,266.781 106.536,265.412 101.009 C 264.086 95.653,263.526 94.948,260.000 94.199 C 256.282 93.409,252.441 90.120,251.794 87.171 C 251.289 84.875,249.368 83.462,244.800 82.028 C 240.138 80.565,237.507 79.352,234.766 77.401 C 233.757 76.683,232.530 75.968,232.039 75.812 C 231.549 75.657,230.542 74.998,229.801 74.348 C 225.594 70.654,215.189 68.987,196.600 69.029 C 182.183 69.062,176.558 69.743,166.690 72.651 C 166.300 72.766,165.273 73.819,164.407 74.990 C 161.596 78.796,155.080 81.106,150.438 79.942 C 144.159 78.368,145.431 70.136,152.505 66.561 C 155.225 65.186,156.198 63.849,157.614 59.540 C 158.896 55.638,160.653 53.513,163.878 51.966 C 167.644 50.159,169.370 48.419,170.607 45.181 C 172.191 41.036,176.843 36.803,179.817 36.800 C 180.762 36.800,183.524 33.308,184.246 31.200 C 185.196 28.426,188.258 25.201,190.811 24.283 C 193.999 23.137,207.609 23.498,210.151 24.796 M209.800 81.458 C 215.380 82.377,218.741 83.675,220.400 85.552 C 221.932 87.284,229.542 91.621,235.000 93.873 C 237.555 94.927,238.580 95.617,240.086 97.296 C 243.443 101.040,245.758 103.219,247.800 104.555 C 250.468 106.301,252.114 108.249,253.853 111.719 C 256.056 116.116,259.515 121.224,261.431 122.911 C 266.006 126.938,267.556 137.618,267.585 165.316 C 267.602 181.967,267.689 181.448,264.333 184.657 C 261.584 187.285,259.302 188.041,250.671 189.185 C 246.477 189.741,153.036 189.745,145.400 189.189 C 136.873 188.569,131.188 186.527,128.044 182.955 C 127.219 182.018,125.763 180.939,124.809 180.557 L 123.074 179.863 123.323 166.738 C 123.589 152.746,123.595 152.704,125.730 150.148 C 126.497 149.230,126.825 148.050,127.371 144.257 C 127.746 141.648,128.242 139.038,128.473 138.457 C 128.705 137.875,130.109 133.796,131.594 129.391 C 134.690 120.207,135.636 118.169,138.302 114.932 C 139.358 113.650,141.090 111.373,142.150 109.874 C 147.577 102.199,157.972 93.612,165.220 90.816 C 171.580 88.364,174.505 86.821,175.912 85.177 C 177.890 82.867,179.579 82.174,185.000 81.448 C 187.640 81.095,190.250 80.732,190.800 80.643 C 192.851 80.308,206.330 80.886,209.800 81.458 M142.151 82.554 C 144.004 83.328,145.074 85.910,144.223 87.555 C 142.040 91.777,137.720 92.142,135.978 88.252 C 134.581 85.130,138.861 81.179,142.151 82.554 M128.681 95.300 C 134.593 97.941,131.589 104.792,124.280 105.340 C 121.157 105.574,121.054 105.480,121.153 102.468 C 121.302 97.895,125.514 93.885,128.681 95.300 M121.438 105.669 C 121.857 106.147,122.020 106.434,121.800 106.308 C 121.545 106.161,121.377 107.695,121.336 110.539 C 121.266 115.419,120.107 120.867,118.291 124.848 C 117.751 126.032,117.097 128.012,116.837 129.249 C 116.578 130.486,115.788 132.362,115.083 133.418 C 114.377 134.474,113.585 135.715,113.323 136.176 C 112.316 137.944,111.940 144.015,111.735 161.800 C 111.496 182.501,111.659 181.424,108.247 184.825 C 103.884 189.172,102.999 189.288,72.339 189.499 L 46.078 189.680 43.614 188.574 C 34.558 184.510,35.359 174.126,45.000 170.602 C 47.452 169.706,49.832 167.531,50.448 165.625 C 51.819 161.381,54.113 158.885,58.011 157.396 C 61.310 156.135,63.251 154.195,64.208 151.200 C 65.196 148.112,68.132 145.216,71.519 143.990 C 74.051 143.074,77.200 140.269,77.200 138.930 C 77.200 135.937,81.259 131.859,85.652 130.439 C 87.718 129.771,90.068 127.300,90.934 124.884 C 92.307 121.051,95.128 118.584,99.937 117.011 C 102.598 116.140,104.559 114.450,105.839 111.922 C 108.173 107.318,111.093 105.486,116.600 105.172 C 118.800 105.047,120.617 104.912,120.638 104.872 C 120.659 104.833,121.019 105.191,121.438 105.669 M72.400 197.393 C 97.770 198.985,101.514 199.674,105.343 203.449 C 108.297 206.361,108.302 206.405,105.935 208.995 C 102.809 212.415,101.122 213.094,93.269 214.092 C 86.041 215.011,84.993 215.439,81.812 218.780 C 79.707 220.990,79.652 223.362,79.625 312.746 L 79.600 392.893 81.020 394.827 C 85.829 401.379,79.131 400.800,150.122 400.800 L 206.522 400.800 208.161 402.065 C 209.868 403.383,211.438 405.113,211.812 406.086 C 212.082 406.791,210.106 409.323,208.104 410.839 L 206.600 411.978 150.200 412.014 C 92.168 412.052,88.068 412.144,81.600 413.559 C 72.259 415.603,65.029 416.064,41.200 416.135 L 19.000 416.200 16.727 415.084 C 14.150 413.818,12.316 411.927,11.061 409.241 L 10.200 407.400 10.200 306.592 L 10.200 205.783 11.503 203.137 C 12.880 200.338,14.378 198.910,17.288 197.617 C 19.584 196.597,57.281 196.444,72.400 197.393 M382.585 197.594 C 385.600 198.886,387.094 200.287,388.497 203.137 L 389.800 205.783 389.800 306.592 L 389.800 407.400 388.939 409.241 C 387.684 411.927,385.850 413.818,383.273 415.084 L 381.000 416.200 356.800 416.177 C 331.028 416.153,325.932 415.899,317.400 414.215 C 314.760 413.694,309.816 412.972,306.412 412.612 C 301.734 412.117,299.906 411.760,298.919 411.150 C 291.943 406.838,294.256 402.953,306.143 399.013 C 313.220 396.668,313.234 396.661,314.616 394.778 L 316.000 392.893 315.987 313.346 C 315.971 213.677,316.331 219.813,310.357 217.481 C 308.903 216.913,305.137 215.712,301.989 214.811 C 295.339 212.908,291.471 211.017,289.210 208.565 C 287.195 206.379,287.180 206.513,289.729 204.102 C 293.692 200.354,297.557 198.934,304.708 198.599 C 307.508 198.468,313.310 198.098,317.600 197.776 C 321.890 197.455,326.300 197.136,327.400 197.068 C 337.487 196.444,380.868 196.858,382.585 197.594 M250.426 199.429 C 257.955 200.857,262.413 203.035,264.044 206.083 C 264.742 207.387,260.835 210.803,257.400 211.892 C 249.162 214.503,251.536 214.400,199.456 214.398 C 138.808 214.396,138.800 214.395,132.270 208.390 L 130.296 206.575 132.624 204.447 C 136.246 201.138,138.498 200.253,145.449 199.413 C 152.520 198.558,245.910 198.572,250.426 199.429 " stroke="none" fill="#242424" fill-rule="evenodd"></path></g></svg>