<svg id="svg" version="1.1" xmlns="http://www.w3.org/2000/svg" xmlns:xlink="http://www.w3.org/1999/xlink" width="400" height="492.3076923076923" viewBox="0, 0, 400,492.3076923076923"><g id="svgg"><path id="path0" d="M21.014 20.965 L 19.200 22.779 19.200 246.000 L 19.200 469.221 20.989 471.011 L 22.779 472.800 115.353 472.800 L 207.927 472.800 209.763 471.015 L 211.600 469.230 211.600 460.839 C 211.600 447.594,210.698 438.479,209.085 435.430 L 207.800 433.000 139.000 432.799 L 70.200 432.598 67.083 431.496 C 56.582 427.784,51.363 422.718,46.937 411.941 L 45.400 408.200 45.279 316.000 C 45.140 210.362,45.137 210.500,47.886 204.813 C 49.910 200.625,55.031 195.469,59.111 193.513 L 62.021 192.116 57.511 191.239 C 49.159 189.614,45.883 187.184,43.624 180.941 L 42.389 177.527 42.494 138.063 L 42.600 98.600 43.757 96.095 C 45.109 93.167,47.186 91.139,50.352 89.654 L 52.600 88.600 69.200 88.378 C 87.237 88.137,86.239 88.252,93.543 85.589 C 96.653 84.455,97.891 82.823,102.609 73.644 C 107.904 63.341,109.757 60.811,114.600 57.272 C 116.629 55.790,117.922 54.341,119.561 51.717 C 121.300 48.931,125.502 45.063,128.349 43.626 C 131.514 42.028,136.704 38.497,138.400 36.786 C 143.538 31.606,152.781 27.766,167.800 24.571 C 171.540 23.775,174.645 23.082,174.699 23.030 C 174.903 22.835,159.955 20.782,153.600 20.131 C 147.790 19.537,139.570 19.438,84.914 19.303 L 22.829 19.150 21.014 20.965 M253.400 19.466 C 243.557 19.938,236.001 20.578,230.000 21.448 C 226.150 22.007,222.010 22.590,220.800 22.744 L 218.600 23.023 221.800 23.554 C 237.077 26.086,247.934 30.173,254.000 35.676 C 255.502 37.039,258.225 38.888,260.448 40.056 C 262.565 41.167,265.445 43.097,266.848 44.344 C 268.252 45.591,270.437 47.397,271.704 48.357 C 272.971 49.317,274.626 50.935,275.382 51.952 C 276.138 52.968,277.805 54.825,279.086 56.078 C 280.367 57.330,282.042 59.382,282.808 60.638 C 283.573 61.893,285.100 63.943,286.200 65.192 C 291.945 71.716,294.660 76.125,296.471 81.875 C 298.186 87.318,301.567 87.987,329.200 88.357 L 347.400 88.600 349.648 89.654 C 352.814 91.139,354.891 93.167,356.243 96.095 L 357.400 98.600 357.400 138.600 L 357.400 178.600 355.896 181.676 C 353.581 186.412,350.556 188.494,344.109 189.788 C 342.399 190.131,339.327 190.806,337.283 191.289 L 333.565 192.166 335.112 192.983 C 339.082 195.079,342.892 198.992,344.639 202.768 C 345.207 203.996,346.011 205.672,346.426 206.493 C 346.840 207.314,347.589 210.554,348.090 213.693 L 349.000 219.400 349.000 313.400 C 349.000 416.321,349.193 407.401,346.872 411.600 C 346.446 412.370,345.369 414.531,344.478 416.401 C 339.466 426.930,334.352 430.606,322.743 432.025 L 315.286 432.937 313.992 435.537 C 312.342 438.852,311.638 446.080,311.615 459.953 L 311.600 469.305 313.347 471.053 L 315.095 472.800 346.158 472.800 L 377.221 472.800 379.011 471.011 L 380.800 469.221 380.800 246.000 L 380.800 22.779 379.011 20.989 L 377.221 19.200 316.511 19.276 C 283.120 19.317,254.720 19.403,253.400 19.466 M183.800 65.398 C 175.545 66.816,171.477 68.149,168.131 70.532 C 167.069 71.288,165.120 72.453,163.800 73.120 C 162.480 73.787,160.410 75.218,159.200 76.301 C 156.647 78.585,150.764 82.991,149.160 83.821 C 148.553 84.135,147.945 84.744,147.808 85.175 C 147.671 85.606,147.229 86.064,146.826 86.192 C 145.280 86.683,143.346 94.854,142.801 103.200 C 142.278 111.200,142.291 175.488,142.815 178.722 C 143.696 184.149,145.597 188.089,146.807 186.994 C 148.010 185.905,149.192 182.009,149.595 177.800 C 150.036 173.208,150.084 113.918,149.654 105.200 C 149.329 98.611,149.661 91.902,150.389 90.351 C 151.385 88.230,151.244 88.237,188.800 88.351 C 231.750 88.480,242.202 87.867,245.107 85.050 C 245.842 84.337,239.450 78.744,235.800 76.908 C 232.175 75.084,229.232 73.125,226.662 70.828 C 224.380 68.788,223.281 68.175,221.200 67.783 C 220.430 67.637,216.920 66.838,213.400 66.007 C 203.717 63.719,194.651 63.533,183.800 65.398 M253.178 95.900 C 252.957 96.505,252.670 97.270,252.541 97.600 C 250.138 103.734,249.118 175.203,251.336 182.059 C 253.294 188.113,254.390 187.788,256.493 180.529 L 257.400 177.400 257.385 146.600 C 257.375 124.669,257.227 114.533,256.871 111.400 C 256.596 108.980,256.186 105.380,255.961 103.400 C 255.593 100.177,254.216 94.800,253.757 94.800 C 253.660 94.800,253.399 95.295,253.178 95.900 M69.355 120.200 C 69.356 123.060,69.420 124.178,69.497 122.683 C 69.574 121.189,69.574 118.849,69.496 117.483 C 69.418 116.118,69.355 117.340,69.355 120.200 M69.350 157.400 C 69.351 159.820,69.416 160.758,69.496 159.485 C 69.576 158.212,69.575 156.232,69.494 155.085 C 69.414 153.938,69.349 154.980,69.350 157.400 " stroke="none" fill="#8b8b8b" fill-rule="evenodd"></path><path id="path1" d="M20.554 14.007 C 17.615 15.432,15.087 18.052,13.765 21.040 L 12.800 23.223 12.800 246.000 L 12.800 468.777 13.776 470.983 C 15.030 473.820,18.182 476.971,21.022 478.227 L 23.234 479.205 115.717 479.103 L 208.200 479.000 210.065 478.081 C 215.935 475.189,218.000 471.319,218.000 463.207 C 218.000 437.875,216.146 428.173,210.028 421.500 L 207.920 419.200 145.460 419.194 C 108.353 419.191,80.168 419.024,76.024 418.784 L 69.048 418.380 66.897 416.720 C 64.410 414.802,62.072 412.259,60.141 409.374 L 58.786 407.349 58.925 311.574 C 59.027 241.322,59.191 214.683,59.538 211.607 L 60.010 207.415 62.105 205.282 C 64.843 202.495,68.401 200.131,70.291 199.844 C 85.476 197.537,86.568 197.192,89.593 193.747 C 90.949 192.203,90.868 191.740,88.934 189.950 C 85.405 186.683,83.567 186.259,63.849 184.151 L 53.800 183.077 52.275 181.639 C 51.437 180.847,50.222 179.404,49.575 178.431 L 48.400 176.663 48.400 138.386 L 48.400 100.110 49.500 98.729 C 50.105 97.969,51.230 96.800,52.000 96.131 L 53.400 94.915 70.000 94.667 C 98.432 94.240,103.108 92.916,107.781 83.964 C 110.240 79.251,113.318 74.804,116.061 71.998 C 117.458 70.569,120.888 66.880,123.683 63.800 C 133.790 52.664,141.853 46.046,147.809 43.997 C 150.932 42.922,152.860 41.827,155.021 39.898 C 158.779 36.544,159.847 36.119,171.400 33.381 C 192.599 28.357,231.321 32.094,240.332 40.034 C 242.839 42.244,246.658 44.456,250.896 46.155 C 256.122 48.250,258.930 50.452,264.158 56.559 C 265.234 57.816,266.944 59.271,267.958 59.791 C 271.089 61.399,276.650 67.634,277.598 70.600 C 278.611 73.767,280.454 76.842,282.929 79.497 C 284.316 80.984,286.321 83.526,287.386 85.146 C 292.850 93.459,296.420 94.305,327.600 94.674 L 346.600 94.899 348.000 96.123 C 348.770 96.796,349.895 97.969,350.500 98.729 L 351.600 100.110 351.600 138.395 L 351.600 176.680 350.466 178.240 C 348.391 181.093,346.166 182.798,344.499 182.814 C 343.674 182.821,340.930 183.084,338.400 183.398 C 335.870 183.712,329.660 184.248,324.600 184.588 C 313.508 185.335,309.062 186.852,304.872 191.321 L 303.944 192.311 306.272 194.219 C 308.707 196.215,314.004 198.921,316.400 199.392 C 318.537 199.812,325.910 201.937,328.553 202.894 C 331.375 203.916,334.265 206.614,334.592 208.533 C 335.941 216.452,336.000 220.883,335.999 314.756 L 335.997 407.400 335.144 408.800 C 334.675 409.570,333.523 411.199,332.583 412.421 L 330.876 414.641 325.538 416.309 C 322.602 417.226,319.057 418.286,317.661 418.665 C 310.656 420.563,306.270 430.064,305.595 444.800 C 304.426 470.331,305.272 474.175,312.905 477.989 L 315.328 479.200 346.052 479.200 L 376.777 479.200 378.960 478.235 C 381.991 476.894,384.578 474.380,386.007 471.385 L 387.200 468.886 387.200 246.054 L 387.200 23.223 386.224 21.017 C 384.960 18.157,381.823 15.035,378.895 13.722 L 376.600 12.693 310.800 12.959 C 244.849 13.225,239.211 13.333,221.400 14.676 C 207.222 15.745,184.724 15.644,169.800 14.445 C 155.665 13.309,125.787 12.847,65.400 12.831 L 23.000 12.820 20.554 14.007 M148.600 15.625 C 153.880 15.858,161.890 16.407,166.400 16.844 C 192.594 19.382,199.459 19.475,219.800 17.566 C 226.840 16.905,234.760 16.170,237.400 15.933 C 240.504 15.653,266.095 15.438,309.823 15.323 L 377.446 15.145 379.561 16.734 C 380.725 17.608,382.379 19.259,383.238 20.402 L 384.800 22.480 384.800 246.000 L 384.800 469.520 383.238 471.598 C 382.379 472.741,380.741 474.379,379.598 475.238 L 377.520 476.800 346.228 476.800 L 314.937 476.800 313.026 475.534 C 310.899 474.125,308.132 470.867,307.742 469.310 C 307.349 467.745,307.919 440.455,308.392 438.205 C 309.123 434.728,311.169 429.893,313.116 427.043 L 315.000 424.285 322.775 422.354 L 330.549 420.423 332.492 418.511 C 334.548 416.489,337.659 412.200,339.247 409.200 L 340.200 407.400 340.318 316.000 C 340.467 201.020,340.863 208.258,334.082 201.916 C 331.104 199.130,329.594 198.580,318.877 196.375 C 315.327 195.644,312.822 194.569,310.499 192.778 L 309.599 192.084 311.617 190.789 C 314.589 188.882,315.981 188.530,322.600 188.013 C 325.900 187.756,332.037 187.017,336.238 186.372 C 340.439 185.728,344.383 185.200,345.002 185.200 C 346.647 185.200,350.018 182.473,351.951 179.579 L 353.600 177.109 353.600 138.420 L 353.600 99.730 352.011 97.511 C 351.134 96.287,349.446 94.645,348.243 93.846 L 346.064 92.400 330.001 92.400 C 309.528 92.400,301.087 91.756,297.412 89.913 C 294.524 88.465,290.880 85.463,290.364 84.106 C 289.787 82.589,286.466 77.605,284.642 75.520 C 283.738 74.486,281.918 71.705,280.599 69.341 C 278.141 64.935,273.288 59.455,268.800 56.017 C 267.810 55.258,266.110 53.639,265.022 52.419 C 261.872 48.886,257.867 45.859,253.061 43.381 C 250.608 42.115,246.980 39.961,245.000 38.594 C 239.523 34.812,236.893 33.710,226.000 30.630 C 220.592 29.101,206.939 27.602,198.406 27.601 C 185.353 27.599,177.936 28.485,164.400 31.664 C 160.391 32.605,154.906 35.101,150.766 37.870 C 149.134 38.960,146.540 40.547,145.000 41.396 C 130.817 49.214,112.548 67.806,105.689 81.400 C 101.002 90.690,95.351 92.400,69.335 92.400 L 53.936 92.400 51.757 93.846 C 50.554 94.645,48.866 96.287,47.989 97.511 L 46.400 99.730 46.400 138.281 C 46.400 181.743,46.119 177.762,49.475 181.900 C 52.149 185.198,52.968 185.582,59.077 186.401 C 71.975 188.132,84.192 190.512,85.314 191.513 C 86.847 192.880,82.646 194.327,72.200 196.030 C 67.510 196.795,62.934 199.444,58.954 203.699 C 54.139 208.846,54.379 202.980,54.391 315.208 L 54.400 407.417 56.214 410.516 C 58.485 414.394,62.469 418.653,66.064 421.043 L 68.824 422.878 75.512 423.427 C 80.799 423.861,95.367 423.979,145.071 423.988 L 207.942 424.000 209.933 426.976 C 214.491 433.791,215.105 437.015,215.465 456.020 L 215.711 469.039 214.695 470.650 C 213.418 472.672,211.505 474.597,209.538 475.839 L 208.016 476.800 115.248 476.800 L 22.480 476.800 20.402 475.238 C 19.259 474.379,17.621 472.741,16.762 471.598 L 15.200 469.520 15.200 246.000 L 15.200 22.480 16.762 20.402 C 17.621 19.259,19.259 17.621,20.402 16.762 L 22.480 15.200 80.740 15.200 C 115.476 15.201,142.876 15.372,148.600 15.625 M188.000 50.436 C 181.146 51.996,177.976 52.992,174.342 54.726 C 172.064 55.814,168.220 57.550,165.800 58.584 C 158.754 61.595,154.919 63.593,152.411 65.562 C 143.741 72.367,137.933 77.990,134.585 82.822 L 133.506 84.378 134.338 87.489 C 136.109 94.119,136.115 94.314,136.043 137.000 C 135.968 180.444,136.021 179.313,133.897 183.321 C 132.542 185.875,131.606 186.753,128.132 188.722 C 126.850 189.449,125.265 190.478,124.611 191.008 L 123.423 191.971 124.497 193.092 C 127.442 196.166,130.038 197.142,138.637 198.406 C 146.064 199.497,251.934 199.656,256.675 198.583 C 262.680 197.224,268.746 194.792,270.296 193.123 L 271.191 192.158 269.376 190.379 C 266.786 187.839,265.677 185.713,264.523 181.074 L 263.510 177.000 263.770 163.800 C 264.136 145.296,263.413 103.702,262.609 97.000 C 261.038 83.890,260.161 81.857,253.800 76.588 C 252.260 75.312,249.006 72.335,246.570 69.972 C 242.482 66.008,241.739 65.474,236.970 63.079 C 234.126 61.651,229.835 59.385,227.433 58.043 C 224.680 56.505,221.870 55.285,219.833 54.743 C 218.055 54.271,215.970 53.571,215.200 53.188 C 210.067 50.637,194.180 49.029,188.000 50.436 M201.600 55.597 C 216.180 56.483,234.131 63.655,243.167 72.205 C 245.495 74.408,249.158 77.711,251.307 79.545 C 260.465 87.364,261.217 92.305,261.454 146.200 C 261.607 180.967,261.851 188.312,262.943 190.926 C 263.586 192.464,264.062 192.153,257.261 194.646 L 253.522 196.016 198.061 195.895 L 142.600 195.775 137.200 194.490 C 134.230 193.783,131.294 192.998,130.676 192.744 L 129.553 192.283 131.665 191.128 C 135.271 189.156,136.151 187.972,137.436 183.364 C 138.074 181.073,138.641 128.933,138.408 93.890 L 138.345 84.381 139.409 83.090 C 141.699 80.314,145.167 76.952,148.800 73.988 C 150.890 72.282,152.960 70.550,153.400 70.140 C 156.584 67.167,159.964 65.195,166.179 62.682 C 168.831 61.611,172.170 60.180,173.600 59.504 C 176.527 58.120,189.475 55.313,193.200 55.255 C 194.410 55.236,198.190 55.390,201.600 55.597 M231.800 92.019 C 229.600 92.177,212.670 92.327,194.178 92.353 L 160.557 92.400 158.770 93.533 C 156.794 94.786,154.935 96.810,154.320 98.377 C 153.404 100.713,153.915 177.430,154.868 180.694 C 155.856 184.077,157.734 186.536,160.178 187.646 C 162.696 188.790,237.316 188.789,239.800 187.645 C 242.720 186.301,244.543 183.924,245.564 180.134 C 245.871 178.995,246.052 168.376,246.142 146.337 C 246.227 125.497,246.454 111.632,246.789 106.894 C 247.483 97.056,246.336 94.369,240.557 92.297 C 238.509 91.564,238.257 91.556,231.800 92.019 M240.579 95.269 C 243.916 97.479,244.938 99.299,244.586 102.400 C 244.423 103.830,244.180 121.470,244.045 141.600 L 243.800 178.200 242.890 179.903 C 242.390 180.840,241.206 182.415,240.259 183.403 L 238.537 185.200 200.022 185.200 L 161.506 185.200 159.967 183.614 C 159.120 182.741,157.954 181.094,157.376 179.953 L 156.325 177.879 156.287 138.639 C 156.245 94.363,155.940 98.504,159.438 95.833 L 161.139 94.534 190.070 94.688 C 214.108 94.815,225.284 94.667,237.431 94.061 C 238.222 94.022,239.348 94.454,240.579 95.269 M69.754 122.000 C 69.754 124.750,69.818 125.875,69.896 124.500 C 69.974 123.125,69.974 120.875,69.896 119.500 C 69.818 118.125,69.754 119.250,69.754 122.000 M69.748 157.600 C 69.748 159.910,69.814 160.855,69.895 159.700 C 69.976 158.545,69.976 156.655,69.895 155.500 C 69.814 154.345,69.748 155.290,69.748 157.600 M237.179 430.630 C 233.214 436.393,232.387 441.588,232.396 460.669 L 232.400 469.138 233.712 470.857 C 234.433 471.803,235.797 473.167,236.743 473.888 L 238.462 475.200 261.574 475.200 L 284.685 475.200 286.494 473.818 C 287.489 473.059,288.865 471.673,289.552 470.740 L 290.800 469.042 290.800 461.472 C 290.800 442.169,290.006 437.164,285.918 430.700 L 284.717 428.800 261.578 428.800 L 238.438 428.800 237.179 430.630 M285.124 437.500 C 286.037 439.885,287.199 453.639,287.200 462.069 C 287.200 468.661,287.188 468.753,286.164 469.969 L 285.129 471.200 261.639 471.200 L 238.150 471.200 237.075 470.078 L 236.000 468.956 236.001 461.378 C 236.003 451.841,237.088 439.367,238.096 437.300 L 238.535 436.400 261.619 436.400 L 284.703 436.400 285.124 437.500 " stroke="none" fill="#444444" fill-rule="evenodd"></path><path id="path2" d="M20.402 16.762 C 19.259 17.621,17.621 19.259,16.762 20.402 L 15.200 22.480 15.200 246.000 L 15.200 469.520 16.762 471.598 C 17.621 472.741,19.259 474.379,20.402 475.238 L 22.480 476.800 115.248 476.800 L 208.016 476.800 209.538 475.839 C 211.505 474.597,213.418 472.672,214.695 470.650 L 215.711 469.039 215.465 456.020 C 215.105 437.015,214.491 433.791,209.933 426.976 L 207.942 424.000 145.071 423.988 C 95.367 423.979,80.799 423.861,75.512 423.427 L 68.824 422.878 66.064 421.043 C 62.469 418.653,58.485 414.394,56.214 410.516 L 54.400 407.417 54.391 315.208 C 54.379 202.980,54.139 208.846,58.954 203.699 C 62.934 199.444,67.510 196.795,72.200 196.030 C 82.646 194.327,86.847 192.880,85.314 191.513 C 84.192 190.512,71.975 188.132,59.077 186.401 C 52.968 185.582,52.149 185.198,49.475 181.900 C 46.119 177.762,46.400 181.743,46.400 138.281 L 46.400 99.730 47.989 97.511 C 48.866 96.287,50.554 94.645,51.757 93.846 L 53.936 92.400 69.335 92.400 C 95.351 92.400,101.002 90.690,105.689 81.400 C 112.548 67.806,130.817 49.214,145.000 41.396 C 146.540 40.547,149.134 38.960,150.766 37.870 C 154.906 35.101,160.391 32.605,164.400 31.664 C 177.936 28.485,185.353 27.599,198.406 27.601 C 206.939 27.602,220.592 29.101,226.000 30.630 C 236.893 33.710,239.523 34.812,245.000 38.594 C 246.980 39.961,250.608 42.115,253.061 43.381 C 257.867 45.859,261.872 48.886,265.022 52.419 C 266.110 53.639,267.810 55.258,268.800 56.017 C 273.288 59.455,278.141 64.935,280.599 69.341 C 281.918 71.705,283.738 74.486,284.642 75.520 C 286.466 77.605,289.787 82.589,290.364 84.106 C 290.880 85.463,294.524 88.465,297.412 89.913 C 301.087 91.756,309.528 92.400,330.001 92.400 L 346.064 92.400 348.243 93.846 C 349.446 94.645,351.134 96.287,352.011 97.511 L 353.600 99.730 353.600 138.420 L 353.600 177.109 351.951 179.579 C 350.018 182.473,346.647 185.200,345.002 185.200 C 344.383 185.200,340.439 185.728,336.238 186.372 C 332.037 187.017,325.900 187.756,322.600 188.013 C 315.981 188.530,314.589 188.882,311.617 190.789 L 309.599 192.084 310.499 192.778 C 312.822 194.569,315.327 195.644,318.877 196.375 C 329.594 198.580,331.104 199.130,334.082 201.916 C 340.863 208.258,340.467 201.020,340.318 316.000 L 340.200 407.400 339.247 409.200 C 337.659 412.200,334.548 416.489,332.492 418.511 L 330.549 420.423 322.775 422.354 L 315.000 424.285 313.116 427.043 C 311.169 429.893,309.123 434.728,308.392 438.205 C 307.919 440.455,307.349 467.745,307.742 469.310 C 308.132 470.867,310.899 474.125,313.026 475.534 L 314.937 476.800 346.228 476.800 L 377.520 476.800 379.598 475.238 C 380.741 474.379,382.379 472.741,383.238 471.598 L 384.800 469.520 384.800 246.000 L 384.800 22.480 383.238 20.402 C 382.379 19.259,380.725 17.608,379.561 16.734 L 377.446 15.145 309.823 15.323 C 266.095 15.438,240.504 15.653,237.400 15.933 C 234.760 16.170,226.840 16.905,219.800 17.566 C 199.459 19.475,192.594 19.382,166.400 16.844 C 151.574 15.407,140.830 15.201,80.740 15.200 L 22.480 15.200 20.402 16.762 M155.000 16.743 C 158.300 17.002,164.240 17.583,168.200 18.033 C 191.707 20.705,198.340 20.799,218.600 18.749 C 245.429 16.035,246.680 16.000,316.837 16.000 L 377.326 16.000 379.389 17.592 C 380.524 18.467,382.026 19.982,382.726 20.957 L 384.000 22.731 384.000 246.000 L 384.000 469.269 382.726 471.043 C 382.026 472.018,380.524 473.533,379.389 474.408 L 377.326 476.000 346.235 476.000 L 315.144 476.000 313.359 474.772 C 312.377 474.096,310.860 472.640,309.987 471.536 L 308.400 469.528 308.406 459.664 C 308.417 441.625,308.977 437.231,312.033 431.200 C 314.562 426.207,314.796 426.021,319.828 424.981 C 329.399 423.001,330.843 422.522,332.745 420.690 C 335.258 418.271,338.934 413.238,340.476 410.106 L 341.800 407.417 341.800 314.009 C 341.800 200.189,342.193 208.421,336.469 202.301 C 332.344 197.891,330.820 197.234,320.000 195.194 C 316.044 194.448,312.000 192.929,312.000 192.188 C 312.000 190.998,315.550 189.970,321.688 189.382 C 325.269 189.039,331.350 188.242,335.200 187.610 C 339.050 186.979,343.100 186.344,344.200 186.199 C 347.747 185.732,351.450 182.689,353.552 178.516 C 354.820 175.997,354.898 100.944,353.635 98.468 C 352.629 96.496,350.106 93.928,347.939 92.670 L 346.200 91.661 327.600 91.468 C 306.393 91.249,300.996 90.810,297.742 89.038 C 294.749 87.409,292.102 84.947,291.233 82.981 C 290.176 80.592,287.843 77.130,285.408 74.337 C 284.304 73.070,282.950 71.171,282.400 70.117 C 279.384 64.335,274.522 58.484,270.542 55.844 C 269.694 55.282,267.511 53.205,265.691 51.230 C 262.183 47.423,258.070 44.414,252.800 41.798 C 251.150 40.979,248.090 39.091,246.000 37.602 C 224.947 22.607,171.210 22.380,149.200 37.192 C 147.330 38.451,144.270 40.340,142.400 41.392 C 129.044 48.900,111.041 67.645,104.820 80.520 C 101.517 87.356,101.280 87.530,91.800 90.062 L 87.000 91.345 70.148 91.572 L 53.295 91.800 51.148 93.287 C 48.902 94.842,47.374 96.529,46.261 98.683 C 45.660 99.844,45.600 103.454,45.600 138.502 L 45.600 177.043 46.632 179.114 C 49.132 184.131,52.300 186.509,57.400 187.197 C 61.825 187.794,76.715 190.544,80.800 191.519 L 83.800 192.234 81.600 192.700 C 66.430 195.909,64.317 196.716,59.576 201.105 C 55.355 205.013,54.493 206.466,54.031 210.459 C 53.818 212.297,53.353 216.156,52.998 219.036 C 52.417 223.744,52.364 233.495,52.476 315.836 L 52.600 407.400 54.144 410.200 C 57.501 416.285,61.468 420.381,67.272 423.755 C 70.780 425.794,77.643 425.987,146.905 425.994 L 208.010 426.000 209.474 428.288 C 213.816 435.076,214.268 437.518,214.659 456.309 L 214.920 468.819 213.477 470.914 C 212.683 472.067,211.151 473.683,210.073 474.505 L 208.113 476.000 115.393 476.000 L 22.674 476.000 20.611 474.408 C 19.476 473.533,17.974 472.018,17.274 471.043 L 16.000 469.269 16.010 245.935 L 16.020 22.600 17.329 20.874 C 18.049 19.924,19.529 18.436,20.619 17.566 L 22.600 15.983 85.800 16.128 C 129.389 16.227,150.862 16.418,155.000 16.743 M183.600 56.782 C 178.545 57.802,175.376 58.664,173.600 59.504 C 172.170 60.180,168.831 61.611,166.179 62.682 C 159.964 65.195,156.584 67.167,153.400 70.140 C 152.960 70.550,150.890 72.282,148.800 73.988 C 145.167 76.952,141.699 80.314,139.409 83.090 L 138.345 84.381 138.408 93.890 C 138.641 128.933,138.074 181.073,137.436 183.364 C 136.151 187.972,135.271 189.156,131.665 191.128 L 129.553 192.283 130.676 192.744 C 131.294 192.998,134.230 193.783,137.200 194.490 L 142.600 195.775 198.061 195.895 L 253.522 196.016 257.261 194.646 C 264.062 192.153,263.586 192.464,262.943 190.926 C 261.851 188.312,261.607 180.967,261.454 146.200 C 261.217 92.305,260.465 87.364,251.307 79.545 C 249.158 77.711,245.495 74.408,243.167 72.205 C 234.131 63.655,216.180 56.483,201.600 55.597 C 192.762 55.061,191.828 55.122,183.600 56.782 M201.200 57.411 C 206.667 57.630,208.109 57.846,213.400 59.237 C 216.700 60.105,220.210 61.026,221.200 61.286 C 226.137 62.578,238.379 69.545,241.966 73.102 C 243.855 74.975,247.435 78.220,249.922 80.313 C 255.474 84.984,256.378 86.641,258.585 96.181 C 260.389 103.980,261.675 175.605,260.257 189.265 L 259.938 192.330 257.069 193.465 L 254.200 194.600 200.217 194.716 L 146.235 194.833 140.111 193.556 L 133.987 192.279 135.172 191.559 C 139.028 189.213,138.897 190.924,139.223 139.000 C 139.379 114.140,139.646 91.673,139.816 89.073 L 140.125 84.347 142.943 81.330 C 144.492 79.671,147.063 77.350,148.654 76.173 C 150.246 74.996,152.774 72.919,154.274 71.558 C 157.751 68.401,160.335 66.689,163.600 65.380 C 165.030 64.807,168.720 63.290,171.800 62.009 C 176.146 60.202,178.520 59.479,182.400 58.782 C 185.150 58.288,188.480 57.650,189.800 57.365 C 191.120 57.080,192.830 56.917,193.600 57.004 C 194.370 57.090,197.790 57.273,201.200 57.411 M230.400 91.212 C 227.870 91.393,211.114 91.534,193.164 91.527 C 163.031 91.515,160.423 91.567,159.164 92.204 C 156.784 93.409,155.250 94.772,154.136 96.673 L 153.055 98.518 153.152 138.759 C 153.263 185.185,153.212 184.578,157.293 187.691 C 159.801 189.604,159.606 189.595,199.923 189.598 C 241.332 189.600,240.468 189.646,243.189 187.317 C 246.897 184.143,246.881 184.313,247.000 146.664 C 247.080 121.384,247.241 112.590,247.725 106.922 C 248.953 92.569,246.214 90.085,230.400 91.212 M240.557 92.297 C 246.336 94.369,247.483 97.056,246.789 106.894 C 246.454 111.632,246.227 125.497,246.142 146.337 C 246.052 168.376,245.871 178.995,245.564 180.134 C 244.543 183.924,242.720 186.301,239.800 187.645 C 237.316 188.789,162.696 188.790,160.178 187.646 C 157.734 186.536,155.856 184.077,154.868 180.694 C 153.915 177.430,153.404 100.713,154.320 98.377 C 154.935 96.810,156.794 94.786,158.770 93.533 L 160.557 92.400 194.178 92.353 C 212.670 92.327,229.600 92.177,231.800 92.019 C 238.257 91.556,238.509 91.564,240.557 92.297 M238.096 437.300 C 237.088 439.367,236.003 451.841,236.001 461.378 L 236.000 468.956 237.075 470.078 L 238.150 471.200 261.639 471.200 L 285.129 471.200 286.164 469.969 C 287.188 468.753,287.200 468.661,287.200 462.069 C 287.199 453.639,286.037 439.885,285.124 437.500 L 284.703 436.400 261.619 436.400 L 238.535 436.400 238.096 437.300 M285.141 448.923 C 285.769 455.110,285.754 468.886,285.120 469.520 C 284.322 470.318,238.665 470.201,238.000 469.400 C 237.476 468.769,237.674 448.473,238.230 445.700 L 238.491 444.400 261.587 444.400 L 284.683 444.400 285.141 448.923 " stroke="none" fill="#4c4c4c" fill-rule="evenodd"></path><path id="path3" d="M20.619 17.566 C 19.529 18.436,18.049 19.924,17.329 20.874 L 16.020 22.600 16.010 245.935 L 16.000 469.269 17.274 471.043 C 17.974 472.018,19.476 473.533,20.611 474.408 L 22.674 476.000 115.393 476.000 L 208.113 476.000 210.073 474.505 C 211.151 473.683,212.683 472.067,213.477 470.914 L 214.920 468.819 214.659 456.309 C 214.268 437.518,213.816 435.076,209.474 428.288 L 208.010 426.000 146.905 425.994 C 77.643 425.987,70.780 425.794,67.272 423.755 C 61.468 420.381,57.501 416.285,54.144 410.200 L 52.600 407.400 52.476 315.836 C 52.364 233.495,52.417 223.744,52.998 219.036 C 53.353 216.156,53.818 212.297,54.031 210.459 C 54.493 206.466,55.355 205.013,59.576 201.105 C 64.317 196.716,66.430 195.909,81.600 192.700 L 83.800 192.234 80.800 191.519 C 76.715 190.544,61.825 187.794,57.400 187.197 C 52.300 186.509,49.132 184.131,46.632 179.114 L 45.600 177.043 45.600 138.502 C 45.600 103.454,45.660 99.844,46.261 98.683 C 47.374 96.529,48.902 94.842,51.148 93.287 L 53.295 91.800 70.148 91.572 L 87.000 91.345 91.800 90.062 C 101.280 87.530,101.517 87.356,104.820 80.520 C 111.041 67.645,129.044 48.900,142.400 41.392 C 144.270 40.340,147.330 38.451,149.200 37.192 C 171.210 22.380,224.947 22.607,246.000 37.602 C 248.090 39.091,251.150 40.979,252.800 41.798 C 258.070 44.414,262.183 47.423,265.691 51.230 C 267.511 53.205,269.694 55.282,270.542 55.844 C 274.522 58.484,279.384 64.335,282.400 70.117 C 282.950 71.171,284.304 73.070,285.408 74.337 C 287.843 77.130,290.176 80.592,291.233 82.981 C 292.102 84.947,294.749 87.409,297.742 89.038 C 300.996 90.810,306.393 91.249,327.600 91.468 L 346.200 91.661 347.939 92.670 C 350.106 93.928,352.629 96.496,353.635 98.468 C 354.898 100.944,354.820 175.997,353.552 178.516 C 351.450 182.689,347.747 185.732,344.200 186.199 C 343.100 186.344,339.050 186.979,335.200 187.610 C 331.350 188.242,325.269 189.039,321.688 189.382 C 315.550 189.970,312.000 190.998,312.000 192.188 C 312.000 192.929,316.044 194.448,320.000 195.194 C 330.820 197.234,332.344 197.891,336.469 202.301 C 342.193 208.421,341.800 200.189,341.800 314.009 L 341.800 407.417 340.476 410.106 C 338.934 413.238,335.258 418.271,332.745 420.690 C 330.843 422.522,329.399 423.001,319.828 424.981 C 314.796 426.021,314.562 426.207,312.033 431.200 C 308.977 437.231,308.417 441.625,308.406 459.664 L 308.400 469.528 309.987 471.536 C 310.860 472.640,312.377 474.096,313.359 474.772 L 315.144 476.000 346.235 476.000 L 377.326 476.000 379.389 474.408 C 380.524 473.533,382.026 472.018,382.726 471.043 L 384.000 469.269 384.000 246.000 L 384.000 22.731 382.726 20.957 C 382.026 19.982,380.524 18.467,379.389 17.592 L 377.326 16.000 316.837 16.000 C 246.680 16.000,245.429 16.035,218.600 18.749 C 198.340 20.799,191.707 20.705,168.200 18.033 C 153.163 16.324,151.128 16.277,85.800 16.128 L 22.600 15.983 20.619 17.566 M153.600 20.131 C 159.955 20.782,174.903 22.835,174.699 23.030 C 174.645 23.082,171.540 23.775,167.800 24.571 C 152.781 27.766,143.538 31.606,138.400 36.786 C 136.704 38.497,131.514 42.028,128.349 43.626 C 125.502 45.063,121.300 48.931,119.561 51.717 C 117.922 54.341,116.629 55.790,114.600 57.272 C 109.757 60.811,107.904 63.341,102.609 73.644 C 97.891 82.823,96.653 84.455,93.543 85.589 C 86.239 88.252,87.237 88.137,69.200 88.378 L 52.600 88.600 50.352 89.654 C 47.186 91.139,45.109 93.167,43.757 96.095 L 42.600 98.600 42.494 138.063 L 42.389 177.527 43.624 180.941 C 45.883 187.184,49.159 189.614,57.511 191.239 L 62.021 192.116 59.111 193.513 C 55.031 195.469,49.910 200.625,47.886 204.813 C 45.137 210.500,45.140 210.362,45.279 316.000 L 45.400 408.200 46.937 411.941 C 51.363 422.718,56.582 427.784,67.083 431.496 L 70.200 432.598 139.000 432.799 L 207.800 433.000 209.085 435.430 C 210.698 438.479,211.600 447.594,211.600 460.839 L 211.600 469.230 209.763 471.015 L 207.927 472.800 115.353 472.800 L 22.779 472.800 20.989 471.011 L 19.200 469.221 19.200 246.000 L 19.200 22.779 21.014 20.965 L 22.829 19.150 84.914 19.303 C 139.570 19.438,147.790 19.537,153.600 20.131 M379.011 20.989 L 380.800 22.779 380.800 246.000 L 380.800 469.221 379.011 471.011 L 377.221 472.800 346.158 472.800 L 315.095 472.800 313.347 471.053 L 311.600 469.305 311.615 459.953 C 311.638 446.080,312.342 438.852,313.992 435.537 L 315.286 432.937 322.743 432.025 C 334.352 430.606,339.466 426.930,344.478 416.401 C 345.369 414.531,346.446 412.370,346.872 411.600 C 349.193 407.401,349.000 416.321,349.000 313.400 L 349.000 219.400 348.090 213.693 C 347.589 210.554,346.840 207.314,346.426 206.493 C 346.011 205.672,345.207 203.996,344.639 202.768 C 342.892 198.992,339.082 195.079,335.112 192.983 L 333.565 192.166 337.283 191.289 C 339.327 190.806,342.399 190.131,344.109 189.788 C 350.556 188.494,353.581 186.412,355.896 181.676 L 357.400 178.600 357.400 138.600 L 357.400 98.600 356.243 96.095 C 354.891 93.167,352.814 91.139,349.648 89.654 L 347.400 88.600 329.200 88.357 C 301.567 87.987,298.186 87.318,296.471 81.875 C 294.660 76.125,291.945 71.716,286.200 65.192 C 285.100 63.943,283.573 61.893,282.808 60.638 C 282.042 59.382,280.367 57.330,279.086 56.078 C 277.805 54.825,276.138 52.968,275.382 51.952 C 274.626 50.935,272.971 49.317,271.704 48.357 C 270.437 47.397,268.252 45.591,266.848 44.344 C 265.445 43.097,262.565 41.167,260.448 40.056 C 258.225 38.888,255.502 37.039,254.000 35.676 C 247.934 30.173,237.077 26.086,221.800 23.554 L 218.600 23.023 220.800 22.744 C 222.010 22.590,226.150 22.007,230.000 21.448 C 236.001 20.578,243.557 19.938,253.400 19.466 C 254.720 19.403,283.120 19.317,316.511 19.276 L 377.221 19.200 379.011 20.989 M189.800 57.365 C 188.480 57.650,185.150 58.288,182.400 58.782 C 178.520 59.479,176.146 60.202,171.800 62.009 C 168.720 63.290,165.030 64.807,163.600 65.380 C 160.335 66.689,157.751 68.401,154.274 71.558 C 152.774 72.919,150.246 74.996,148.654 76.173 C 147.063 77.350,144.492 79.671,142.943 81.330 L 140.125 84.347 139.816 89.073 C 139.646 91.673,139.379 114.140,139.223 139.000 C 138.897 190.924,139.028 189.213,135.172 191.559 L 133.987 192.279 140.111 193.556 L 146.235 194.833 200.217 194.716 L 254.200 194.600 257.069 193.465 L 259.938 192.330 260.257 189.265 C 261.675 175.605,260.389 103.980,258.585 96.181 C 256.378 86.641,255.474 84.984,249.922 80.313 C 247.435 78.220,243.855 74.975,241.966 73.102 C 238.379 69.545,226.137 62.578,221.200 61.286 C 220.210 61.026,216.700 60.105,213.400 59.237 C 208.109 57.846,206.667 57.630,201.200 57.411 C 197.790 57.273,194.370 57.090,193.600 57.004 C 192.830 56.917,191.120 57.080,189.800 57.365 M213.400 66.007 C 216.920 66.838,220.430 67.637,221.200 67.783 C 223.281 68.175,224.380 68.788,226.662 70.828 C 229.232 73.125,232.175 75.084,235.800 76.908 C 239.450 78.744,245.842 84.337,245.107 85.050 C 242.202 87.867,231.750 88.480,188.800 88.351 C 151.244 88.237,151.385 88.230,150.389 90.351 C 149.661 91.902,149.329 98.611,149.654 105.200 C 150.084 113.918,150.036 173.208,149.595 177.800 C 149.192 182.009,148.010 185.905,146.807 186.994 C 145.597 188.089,143.696 184.149,142.815 178.722 C 142.291 175.488,142.278 111.200,142.801 103.200 C 143.346 94.854,145.280 86.683,146.826 86.192 C 147.229 86.064,147.671 85.606,147.808 85.175 C 147.945 84.744,148.553 84.135,149.160 83.821 C 150.764 82.991,156.647 78.585,159.200 76.301 C 160.410 75.218,162.480 73.787,163.800 73.120 C 165.120 72.453,167.069 71.288,168.131 70.532 C 176.520 64.557,198.123 62.398,213.400 66.007 M243.356 92.161 C 247.771 94.321,248.572 97.026,247.725 106.922 C 247.241 112.590,247.080 121.384,247.000 146.664 C 246.881 184.313,246.897 184.143,243.189 187.317 C 240.468 189.646,241.332 189.600,199.923 189.598 C 159.606 189.595,159.801 189.604,157.293 187.691 C 153.212 184.578,153.263 185.185,153.152 138.759 L 153.055 98.518 154.136 96.673 C 155.250 94.772,156.784 93.409,159.164 92.204 C 160.423 91.567,163.031 91.515,193.164 91.527 C 211.114 91.534,227.870 91.393,230.400 91.212 C 237.890 90.678,240.755 90.888,243.356 92.161 M254.743 97.300 C 255.187 98.675,255.735 101.420,255.961 103.400 C 256.186 105.380,256.596 108.980,256.871 111.400 C 257.227 114.533,257.375 124.669,257.385 146.600 L 257.400 177.400 256.493 180.529 C 254.390 187.788,253.294 188.113,251.336 182.059 C 249.118 175.203,250.138 103.734,252.541 97.600 C 252.670 97.270,252.957 96.505,253.178 95.900 C 253.734 94.380,253.826 94.463,254.743 97.300 M69.380 139.200 C 69.380 147.010,69.434 150.205,69.499 146.300 C 69.565 142.395,69.565 136.005,69.499 132.100 C 69.434 128.195,69.380 131.390,69.380 139.200 M238.230 445.700 C 237.674 448.473,237.476 468.769,238.000 469.400 C 238.665 470.201,284.322 470.318,285.120 469.520 C 285.754 468.886,285.769 455.110,285.141 448.923 L 284.683 444.400 261.587 444.400 L 238.491 444.400 238.230 445.700 " stroke="none" fill="#545454" fill-rule="evenodd"></path><path id="path4" d="M0.000 246.000 L 0.000 492.000 200.000 492.000 L 400.000 492.000 400.000 246.000 L 400.000 0.000 200.000 0.000 L 0.000 0.000 0.000 246.000 M133.200 13.193 C 153.525 13.474,160.838 13.724,169.800 14.445 C 184.724 15.644,207.222 15.745,221.400 14.676 C 239.211 13.333,244.849 13.225,310.800 12.959 L 376.600 12.693 378.895 13.722 C 381.823 15.035,384.960 18.157,386.224 21.017 L 387.200 23.223 387.200 246.054 L 387.200 468.886 386.007 471.385 C 384.578 474.380,381.991 476.894,378.960 478.235 L 376.777 479.200 346.052 479.200 L 315.328 479.200 312.905 477.989 C 305.272 474.175,304.426 470.331,305.595 444.800 C 306.270 430.064,310.656 420.563,317.661 418.665 C 319.057 418.286,322.602 417.226,325.538 416.309 L 330.876 414.641 332.583 412.421 C 333.523 411.199,334.675 409.570,335.144 408.800 L 335.997 407.400 335.999 314.756 C 336.000 220.883,335.941 216.452,334.592 208.533 C 334.265 206.614,331.375 203.916,328.553 202.894 C 325.910 201.937,318.537 199.812,316.400 199.392 C 314.004 198.921,308.707 196.215,306.272 194.219 L 303.944 192.311 304.872 191.321 C 309.062 186.852,313.508 185.335,324.600 184.588 C 329.660 184.248,335.870 183.712,338.400 183.398 C 340.930 183.084,343.674 182.821,344.499 182.814 C 346.166 182.798,348.391 181.093,350.466 178.240 L 351.600 176.680 351.600 138.395 L 351.600 100.110 350.500 98.729 C 349.895 97.969,348.770 96.796,348.000 96.123 L 346.600 94.899 327.600 94.674 C 296.420 94.305,292.850 93.459,287.386 85.146 C 286.321 83.526,284.316 80.984,282.929 79.497 C 280.454 76.842,278.611 73.767,277.598 70.600 C 276.650 67.634,271.089 61.399,267.958 59.791 C 266.944 59.271,265.234 57.816,264.158 56.559 C 258.930 50.452,256.122 48.250,250.896 46.155 C 246.658 44.456,242.839 42.244,240.332 40.034 C 231.321 32.094,192.599 28.357,171.400 33.381 C 159.847 36.119,158.779 36.544,155.021 39.898 C 152.860 41.827,150.932 42.922,147.809 43.997 C 141.853 46.046,133.790 52.664,123.683 63.800 C 120.888 66.880,117.458 70.569,116.061 71.998 C 113.318 74.804,110.240 79.251,107.781 83.964 C 103.108 92.916,98.432 94.240,70.000 94.667 L 53.400 94.915 52.000 96.131 C 51.230 96.800,50.105 97.969,49.500 98.729 L 48.400 100.110 48.400 138.386 L 48.400 176.663 49.575 178.431 C 50.222 179.404,51.437 180.847,52.275 181.639 L 53.800 183.077 63.849 184.151 C 83.567 186.259,85.405 186.683,88.934 189.950 C 90.868 191.740,90.949 192.203,89.593 193.747 C 86.568 197.192,85.476 197.537,70.291 199.844 C 68.401 200.131,64.843 202.495,62.105 205.282 L 60.010 207.415 59.538 211.607 C 59.191 214.683,59.027 241.322,58.925 311.574 L 58.786 407.349 60.141 409.374 C 62.072 412.259,64.410 414.802,66.897 416.720 L 69.048 418.380 76.024 418.784 C 80.168 419.024,108.353 419.191,145.460 419.194 L 207.920 419.200 210.028 421.500 C 216.146 428.173,218.000 437.875,218.000 463.207 C 218.000 471.319,215.935 475.189,210.065 478.081 L 208.200 479.000 115.717 479.103 L 23.234 479.205 21.022 478.227 C 18.182 476.971,15.030 473.820,13.776 470.983 L 12.800 468.777 12.800 246.000 L 12.800 23.223 13.765 21.040 C 15.087 18.052,17.615 15.432,20.554 14.007 L 23.000 12.820 65.400 12.831 C 88.720 12.837,119.230 13.000,133.200 13.193 M210.537 51.464 C 212.331 52.030,214.430 52.805,215.200 53.188 C 215.970 53.571,218.055 54.271,219.833 54.743 C 221.870 55.285,224.680 56.505,227.433 58.043 C 229.835 59.385,234.126 61.651,236.970 63.079 C 241.739 65.474,242.482 66.008,246.570 69.972 C 249.006 72.335,252.260 75.312,253.800 76.588 C 260.161 81.857,261.038 83.890,262.609 97.000 C 263.413 103.702,264.136 145.296,263.770 163.800 L 263.510 177.000 264.523 181.074 C 265.677 185.713,266.786 187.839,269.376 190.379 L 271.191 192.158 270.296 193.123 C 268.746 194.792,262.680 197.224,256.675 198.583 C 251.934 199.656,146.064 199.497,138.637 198.406 C 130.038 197.142,127.442 196.166,124.497 193.092 L 123.423 191.971 124.611 191.008 C 125.265 190.478,126.850 189.449,128.132 188.722 C 131.606 186.753,132.542 185.875,133.897 183.321 C 136.021 179.313,135.968 180.444,136.043 137.000 C 136.115 94.314,136.109 94.119,134.338 87.489 L 133.506 84.378 134.585 82.822 C 137.933 77.990,143.741 72.367,152.411 65.562 C 154.919 63.593,158.754 61.595,165.800 58.584 C 168.220 57.550,172.064 55.814,174.342 54.726 C 177.976 52.992,181.146 51.996,188.000 50.436 C 191.670 49.600,206.814 50.291,210.537 51.464 M227.600 94.482 C 222.870 94.679,205.981 94.772,190.070 94.688 L 161.139 94.534 159.438 95.833 C 155.940 98.504,156.245 94.363,156.287 138.639 L 156.325 177.879 157.376 179.953 C 157.954 181.094,159.120 182.741,159.967 183.614 L 161.506 185.200 200.022 185.200 L 238.537 185.200 240.259 183.403 C 241.206 182.415,242.390 180.840,242.890 179.903 L 243.800 178.200 244.045 141.600 C 244.180 121.470,244.423 103.830,244.586 102.400 C 245.023 98.554,241.015 93.883,237.431 94.061 C 236.754 94.095,232.330 94.284,227.600 94.482 M69.811 138.400 C 69.805 151.160,69.665 161.600,69.500 161.600 C 69.335 161.600,69.200 151.160,69.200 138.400 C 69.200 125.640,69.340 115.200,69.511 115.200 C 69.683 115.200,69.818 125.640,69.811 138.400 M223.200 138.400 L 223.200 161.600 200.000 161.600 L 176.800 161.600 176.800 138.400 L 176.800 115.200 200.000 115.200 L 223.200 115.200 223.200 138.400 M330.700 150.100 C 330.638 156.535,330.587 151.270,330.587 138.400 C 330.587 125.530,330.638 120.265,330.700 126.700 C 330.762 133.135,330.762 143.665,330.700 150.100 M285.918 430.700 C 290.006 437.164,290.800 442.169,290.800 461.472 L 290.800 469.042 289.552 470.740 C 288.865 471.673,287.489 473.059,286.494 473.818 L 284.685 475.200 261.574 475.200 L 238.462 475.200 236.743 473.888 C 235.797 473.167,234.433 471.803,233.712 470.857 L 232.400 469.138 232.396 460.669 C 232.387 441.588,233.214 436.393,237.179 430.630 L 238.438 428.800 261.578 428.800 L 284.717 428.800 285.918 430.700 " stroke="none" fill="#242424" fill-rule="evenodd"></path></g></svg>